<?xml version="1.0" encoding="utf-8"?>
<!-- Generator: Adobe Illustrator 16.0.0, SVG Export Plug-In . SVG Version: 6.00 Build 0)  -->
<!DOCTYPE svg PUBLIC "-//W3C//DTD SVG 1.1//EN" "http://www.w3.org/Graphics/SVG/1.1/DTD/svg11.dtd">
<svg version="1.1" id="Layer_1" xmlns="http://www.w3.org/2000/svg" xmlns:xlink="http://www.w3.org/1999/xlink" x="0px" y="0px"
	 width="267.655px" height="31.312px" viewBox="0 0 267.655 31.312" enable-background="new 0 0 267.655 31.312"
	 xml:space="preserve">
<g>
	<path d="M51.389,28.989c-0.974,0-1.82-0.177-2.539-0.529c-1.345-0.68-2.191-1.914-2.539-3.704l-0.104-1.625
		c-0.07-1.209-0.174-2.28-0.313-3.212c-0.14-0.932-0.383-1.726-0.73-2.381c-0.742-1.335-1.959-2.003-3.651-2.003h-1.808v12.055
		h3.453v0.945H31.788v-0.945h3.453V4.16h-3.453V3.291h12.276c2.581,0,4.499,0.454,5.754,1.36c1.302,0.882,1.953,2.343,1.953,4.384
		c0,1.663-0.603,2.999-1.808,4.006c-1.229,1.034-3.072,1.751-5.529,2.154c2.898,0.655,4.729,1.802,5.494,3.439
		c0.394,0.832,0.678,1.738,0.852,2.721c0.174,0.982,0.272,2.041,0.296,3.174l0.035,1.852c0.138,0.58,0.417,0.983,0.835,1.209
		c0.209,0.126,0.581,0.189,1.116,0.189c0.372,0,0.86-0.038,1.465-0.113v0.869C53.363,28.838,52.318,28.989,51.389,28.989z
		 M46.16,5.426c-0.602-0.843-1.62-1.266-3.054-1.266h-3.401v10.506h2.95c1.504,0,2.603-0.421,3.297-1.265
		c0.694-0.843,1.042-2.16,1.042-3.949C46.994,7.585,46.715,6.244,46.16,5.426z"/>
	<path d="M64.221,27.213c-1.209,1.26-2.581,1.89-4.115,1.89c-1.744,0-3.29-0.995-4.638-2.985c-1.349-1.99-2.022-4.309-2.022-6.954
		c0-2.922,0.685-5.429,2.058-7.521c1.371-2.091,3.022-3.137,4.952-3.137c1.697,0,3.139,0.807,4.324,2.418
		c1.208,1.613,1.813,3.565,1.813,5.858c0,0.151-0.006,0.283-0.018,0.396S66.546,17.4,66.523,17.5c0,0.177-0.082,0.265-0.244,0.265
		h-8.684v3.628c0,2.192,0.232,3.905,0.697,5.14c0.441,1.209,1.232,1.814,2.372,1.814c1.418,0,2.569-0.781,3.453-2.343
		c0.441-0.78,0.808-1.555,1.099-2.324c0.291-0.769,0.494-1.531,0.61-2.287h0.872C66.209,24.014,65.384,25.954,64.221,27.213z
		 M62.094,10.598c-0.418-0.89-1.046-1.335-1.883-1.335c-1.093,0-1.791,0.585-2.093,1.755c-0.349,1.196-0.523,2.927-0.523,5.191
		v0.688h5.057l0.07-2.634C62.745,12.761,62.535,11.54,62.094,10.598z"/>
	<path d="M76.008,28.536v-0.869h2.197v-11.64c0-0.983-0.029-1.852-0.087-2.608s-0.145-1.385-0.261-1.89
		c-0.256-1.058-0.779-1.587-1.569-1.587c-1,0-1.896,0.769-2.686,2.305c-0.814,1.562-1.221,3.779-1.221,6.651v8.768h2.197v0.869
		h-8.265v-0.869h2.372V9.678h-2.372V8.733l6.068-0.189v3.604c0.606-1.34,1.376-2.276,2.311-2.808
		c0.933-0.557,1.901-0.834,2.905-0.834c1.54,0,2.648,0.646,3.325,1.935c0.653,1.265,0.98,3.161,0.98,5.691v11.534h2.232v0.869
		H76.008z"/>
	<path d="M92.679,27.478c-0.837,1.108-2.035,1.663-3.592,1.663c-0.605,0-1.233-0.151-1.883-0.455
		c-0.628-0.326-1.209-0.741-1.744-1.246l-1.012,1.163h-0.558v-5.547h0.941c0.209,1.512,0.697,2.759,1.465,3.742
		c0.79,0.982,1.767,1.474,2.929,1.474c0.86,0,1.604-0.376,2.232-1.129c0.651-0.728,0.977-1.669,0.977-2.823
		c0-1.229-0.279-2.096-0.837-2.598c-0.558-0.477-1.535-0.891-2.929-1.242c-0.605-0.15-1.174-0.37-1.709-0.659
		c-0.535-0.288-1.035-0.646-1.5-1.073c-0.954-0.879-1.43-2.31-1.43-4.292c0-1.832,0.418-3.275,1.256-4.329
		c0.837-1.08,1.918-1.619,3.243-1.619c0.65,0,1.278,0.113,1.883,0.34c0.558,0.227,1.046,0.517,1.464,0.869l0.558-1.36h0.593v4.837
		h-0.907c-0.069-0.907-0.442-1.789-1.116-2.646c-0.698-0.856-1.523-1.285-2.476-1.285c-0.93,0-1.639,0.378-2.127,1.134
		c-0.512,0.731-0.767,1.625-0.767,2.683c0,0.907,0.244,1.587,0.732,2.041c0.558,0.529,1.581,0.996,3.069,1.398
		c0.883,0.227,1.622,0.498,2.214,0.812c0.593,0.315,1.041,0.712,1.343,1.19c0.604,0.958,0.907,2.368,0.907,4.232
		C93.899,24.794,93.492,26.369,92.679,27.478z"/>
	<path d="M103.455,27.478c-0.837,1.108-2.035,1.663-3.592,1.663c-0.605,0-1.233-0.151-1.883-0.455
		c-0.628-0.326-1.209-0.741-1.744-1.246l-1.012,1.163h-0.558v-5.547h0.941c0.209,1.512,0.697,2.759,1.465,3.742
		c0.79,0.982,1.767,1.474,2.929,1.474c0.86,0,1.604-0.376,2.232-1.129c0.651-0.728,0.977-1.669,0.977-2.823
		c0-1.229-0.279-2.096-0.837-2.598c-0.558-0.477-1.535-0.891-2.929-1.242c-0.605-0.15-1.174-0.37-1.709-0.659
		c-0.535-0.288-1.035-0.646-1.5-1.073c-0.954-0.879-1.43-2.31-1.43-4.292c0-1.832,0.418-3.275,1.256-4.329
		c0.837-1.08,1.918-1.619,3.243-1.619c0.65,0,1.278,0.113,1.883,0.34c0.558,0.227,1.046,0.517,1.464,0.869l0.558-1.36h0.593v4.837
		h-0.907c-0.069-0.907-0.442-1.789-1.116-2.646c-0.698-0.856-1.523-1.285-2.476-1.285c-0.93,0-1.639,0.378-2.127,1.134
		c-0.512,0.731-0.767,1.625-0.767,2.683c0,0.907,0.244,1.587,0.732,2.041c0.558,0.529,1.581,0.996,3.069,1.398
		c0.883,0.227,1.622,0.498,2.214,0.812c0.593,0.315,1.041,0.712,1.343,1.19c0.604,0.958,0.907,2.368,0.907,4.232
		C104.675,24.794,104.268,26.369,103.455,27.478z"/>
	<path d="M116.253,27.213c-1.209,1.26-2.581,1.89-4.115,1.89c-1.744,0-3.29-0.995-4.638-2.985c-1.349-1.99-2.022-4.309-2.022-6.954
		c0-2.922,0.685-5.429,2.058-7.521c1.371-2.091,3.022-3.137,4.952-3.137c1.697,0,3.139,0.807,4.324,2.418
		c1.208,1.613,1.813,3.565,1.813,5.858c0,0.151-0.006,0.283-0.018,0.396s-0.029,0.221-0.052,0.321c0,0.177-0.082,0.265-0.244,0.265
		h-8.684v3.628c0,2.192,0.232,3.905,0.697,5.14c0.441,1.209,1.232,1.814,2.372,1.814c1.418,0,2.569-0.781,3.453-2.343
		c0.441-0.78,0.808-1.555,1.099-2.324c0.291-0.769,0.494-1.531,0.61-2.287h0.872C118.241,24.014,117.416,25.954,116.253,27.213z
		 M114.126,10.598c-0.418-0.89-1.046-1.335-1.883-1.335c-1.093,0-1.791,0.585-2.093,1.755c-0.349,1.196-0.523,2.927-0.523,5.191
		v0.688h5.057l0.07-2.634C114.777,12.761,114.567,11.54,114.126,10.598z"/>
	<path d="M117.369,28.536v-0.869h2.615V4.241h-2.511V3.293c0.674,0,1.272-0.006,1.795-0.019c0.522-0.012,0.967-0.031,1.332-0.057
		c0.365-0.051,0.804-0.114,1.317-0.189c0.513-0.076,1.101-0.177,1.763-0.304v24.942h2.546v0.869H117.369z"/>
	<path d="M138.991,28.536c-0.488,0.378-1.116,0.567-1.883,0.567c-0.884,0-1.534-0.252-1.953-0.756
		c-0.465-0.554-0.732-1.184-0.802-1.89c-0.814,0.958-1.639,1.638-2.476,2.041c-0.907,0.428-1.791,0.642-2.65,0.642
		c-1.14,0-2.023-0.45-2.65-1.352c-0.628-0.926-0.942-2.077-0.942-3.454c0-1.751,0.488-3.153,1.465-4.205
		c0.977-1.076,2.243-1.764,3.801-2.065c0.255-0.049,0.523-0.087,0.802-0.112c0.279-0.025,0.569-0.05,0.872-0.075
		s0.593-0.038,0.872-0.038c0.302,0,0.604,0,0.907,0v-6.215c0-0.661-0.244-1.22-0.732-1.678c-0.535-0.457-1.07-0.686-1.604-0.686
		c-0.651,0-1.221,0.126-1.709,0.378c-0.535,0.277-0.802,0.529-0.802,0.756c0,0.051,0.093,0.277,0.279,0.68
		c0.209,0.429,0.313,0.907,0.313,1.436c-0.093,1.083-0.686,1.625-1.778,1.625c-1.116,0-1.686-0.567-1.709-1.701
		c-0.023-1.083,0.488-2.015,1.535-2.796c1.046-0.756,2.417-1.134,4.115-1.134c1.581,0,2.929,0.429,4.045,1.285
		c1.069,0.857,1.604,1.978,1.604,3.364v13.529c0,0.252,0.07,0.429,0.209,0.529c0.162,0.151,0.372,0.227,0.627,0.227
		c0.186,0,0.407-0.113,0.663-0.34c0.116-0.126,0.227-0.233,0.332-0.321c0.104-0.088,0.18-0.157,0.227-0.208l0.418,0.529
		C139.944,27.654,139.479,28.133,138.991,28.536z M134.353,19.503c-0.349-0.277-0.709-0.503-1.081-0.68
		c-0.187-0.076-0.384-0.113-0.593-0.113c-0.256,0-0.558,0.038-0.907,0.113c-0.791,0.227-1.395,0.693-1.813,1.398
		c-0.442,0.706-0.663,1.676-0.663,2.91c0,1.185,0.174,2.167,0.523,2.948c0.349,0.781,0.907,1.172,1.674,1.172
		c0.86,0,1.546-0.542,2.058-1.625c0.535-1.108,0.802-2.368,0.802-3.779V19.503z"/>
	<path d="M150.221,27.213c-1.209,1.26-2.581,1.89-4.115,1.89c-1.744,0-3.29-0.995-4.638-2.985c-1.349-1.99-2.022-4.309-2.022-6.954
		c0-2.922,0.685-5.429,2.058-7.521c1.371-2.091,3.022-3.137,4.952-3.137c1.697,0,3.139,0.807,4.324,2.418
		c1.208,1.613,1.813,3.565,1.813,5.858c0,0.151-0.006,0.283-0.018,0.396s-0.029,0.221-0.052,0.321c0,0.177-0.082,0.265-0.244,0.265
		h-8.684v3.628c0,2.192,0.232,3.905,0.697,5.14c0.441,1.209,1.232,1.814,2.372,1.814c1.418,0,2.569-0.781,3.453-2.343
		c0.441-0.78,0.808-1.555,1.099-2.324c0.291-0.769,0.494-1.531,0.61-2.287h0.872C152.209,24.014,151.384,25.954,150.221,27.213z
		 M148.094,10.598c-0.418-0.89-1.046-1.335-1.883-1.335c-1.093,0-1.791,0.585-2.093,1.755c-0.349,1.196-0.523,2.927-0.523,5.191
		v0.688h5.057l0.07-2.634C148.745,12.761,148.535,11.54,148.094,10.598z"/>
	<path d="M164.206,13.097h-0.14c-1.139,0-1.744-0.556-1.813-1.669l0.14-1.251c0-0.076-0.023-0.139-0.07-0.19
		c-0.047,0-0.082-0.006-0.104-0.019c-0.023-0.013-0.058-0.02-0.104-0.02c-0.907,0-1.744,1.012-2.511,3.036
		c-0.767,2.049-1.151,4.401-1.151,7.057v7.626h3.139v0.869h-8.962v-0.869h2.058V9.678h-2.302V8.733l5.998-0.189v4.211
		c0.744-1.518,1.511-2.592,2.302-3.225c0.837-0.683,1.755-1.024,2.755-1.024c0.86,0,1.522,0.24,1.988,0.721
		c0.488,0.506,0.732,1.113,0.732,1.821C166.112,12.414,165.461,13.097,164.206,13.097z"/>
	<path d="M179.306,28.536v-0.869h3.592l-2.058-6.765h-7.568l-2.162,6.765h3.557v0.869h-7.394v-0.869h2.79l8.335-24.942h1.221
		l7.952,24.942h2.755v0.869H179.306z M177.178,9.489l-3.522,10.544h6.766L177.178,9.489z"/>
	<path d="M190.117,28.536v-0.869h2.615V4.241h-2.511V3.293c0.674,0,1.272-0.006,1.795-0.019c0.522-0.012,0.967-0.031,1.332-0.057
		c0.365-0.051,0.804-0.114,1.317-0.189c0.513-0.076,1.101-0.177,1.763-0.304v24.942h2.546v0.869H190.117z"/>
	<path d="M212.405,28.536c-0.691,0-1.152,0.012-1.382,0.038c-0.23,0.025-0.507,0.057-0.83,0.095c-0.322,0.038-0.679,0.094-1.07,0.17
		v-3.401c-0.745,1.336-1.547,2.268-2.407,2.797c-0.884,0.579-1.825,0.869-2.825,0.869c-1.372,0-2.406-0.542-3.104-1.625
		c-0.744-1.108-1.116-2.582-1.116-4.422V9.678h-2.267V8.733l5.964-0.151v15.646c0,1.185,0.116,2.079,0.35,2.683
		c0.257,0.655,0.653,0.982,1.19,0.982c1.121,0,2.089-0.743,2.906-2.229c0.816-1.537,1.225-3.351,1.225-5.442V9.678h-2.625V8.733
		l6.405-0.151v19.084h2.407v0.869C214.041,28.536,213.1,28.536,212.405,28.536z"/>
	<path d="M232.733,28.536v-0.869h1.813V14.25c0-1.436-0.071-2.519-0.212-3.25c-0.142-0.705-0.531-1.058-1.167-1.058h-0.283
		c-0.849,0-1.626,0.618-2.333,1.852c-0.731,1.235-1.097,3.099-1.097,5.593v10.279h1.918v0.869h-7.394v-0.869h1.778V14.25
		c0-1.436-0.104-2.519-0.313-3.25c-0.209-0.705-0.675-1.058-1.395-1.058h-0.279c-0.512,0-1.151,0.668-1.918,2.003
		c-0.767,1.335-1.151,3.086-1.151,5.253v10.468h1.953v0.869h-8.091v-0.869h2.371V9.678h-2.371V8.733l6.068-0.189v3.604
		c0.556-1.34,1.25-2.276,2.084-2.808c0.856-0.557,1.737-0.834,2.64-0.834c1.227,0,2.142,0.291,2.744,0.873
		c0.648,0.582,1.123,1.34,1.424,2.276c0.394-0.809,0.961-1.53,1.702-2.163c0.811-0.657,1.76-0.986,2.849-0.986
		c1.621,0,2.721,0.62,3.3,1.859s0.869,3.162,0.869,5.767v11.534h2.302v0.869H232.733z"/>
	<path d="M250.17,28.536v-0.869h2.197v-11.64c0-0.983-0.029-1.852-0.087-2.608s-0.145-1.385-0.261-1.89
		c-0.256-1.058-0.779-1.587-1.569-1.587c-1,0-1.896,0.769-2.686,2.305c-0.814,1.562-1.221,3.779-1.221,6.651v8.768h2.197v0.869
		h-8.265v-0.869h2.372V9.678h-2.372V8.733l6.068-0.189v3.604c0.606-1.34,1.376-2.276,2.311-2.808
		c0.933-0.557,1.901-0.834,2.905-0.834c1.54,0,2.648,0.646,3.325,1.935c0.653,1.265,0.98,3.161,0.98,5.691v11.534h2.232v0.869
		H250.17z"/>
	<path d="M258.018,28.536v-0.869h2.616V9.678h-2.511V8.733l6.277-0.189v19.123h2.546v0.869H258.018z M263.912,6.276
		c-0.396,0.429-0.86,0.643-1.395,0.643c-0.535,0-1-0.214-1.395-0.643c-0.396-0.428-0.593-0.932-0.593-1.512
		c0-0.604,0.197-1.121,0.593-1.549c0.395-0.428,0.86-0.643,1.395-0.643c0.535,0,1,0.214,1.395,0.643
		c0.395,0.429,0.593,0.933,0.593,1.512C264.504,5.332,264.307,5.849,263.912,6.276z"/>
</g>
<g>
	<defs>
		<rect id="SVGID_1_" x="-1" y="-0.438" width="34" height="34"/>
	</defs>
	<clipPath id="SVGID_2_">
		<use xlink:href="#SVGID_1_"  overflow="visible"/>
	</clipPath>
	<g clip-path="url(#SVGID_2_)">
		<path fill="none" stroke="#000000" stroke-width="0.9642" d="M15.764,30.8c8.397,0,15.207-6.809,15.207-15.207
			c0-8.398-6.809-15.207-15.207-15.207c-8.398,0-15.207,6.809-15.207,15.207C0.557,23.991,7.366,30.8,15.764,30.8L15.764,30.8z"/>
		<path fill="none" stroke="#000000" stroke-width="0.8999" d="M15.745,29.802c7.838,0,14.192-6.354,14.192-14.191
			c0-7.838-6.354-14.193-14.192-14.193c-7.837,0-14.192,6.354-14.192,14.193C1.552,23.448,7.907,29.802,15.745,29.802L15.745,29.802
			z"/>
		<path d="M22.068,22.976c0.169-0.146,0.335-0.298,0.495-0.458c1.832-1.817,2.847-4.238,2.858-6.817s-0.983-5.01-2.799-6.842
			s-4.237-2.847-6.817-2.858C13.226,5.99,10.796,6.983,8.964,8.8c-1.833,1.816-2.848,4.237-2.859,6.817
			c-0.011,2.579,0.983,5.009,2.799,6.841c0.178,0.179,0.361,0.35,0.549,0.513l0.432-0.23c-0.227-0.189-0.447-0.391-0.657-0.603
			c-1.73-1.746-2.678-4.062-2.667-6.52c0.01-2.458,0.978-4.765,2.724-6.495c1.746-1.731,4.061-2.678,6.519-2.667
			c2.458,0.011,4.765,0.978,6.496,2.724c1.73,1.746,2.678,4.061,2.667,6.519s-0.978,4.765-2.724,6.495
			c-0.194,0.193-0.396,0.375-0.603,0.548L22.068,22.976L22.068,22.976z M19.782,23.944c-1.249,0.607-2.629,0.924-4.058,0.917l0,0
			c-1.405-0.005-2.76-0.324-3.986-0.921l-0.563,0.223c1.381,0.747,2.933,1.147,4.547,1.155l0,0c1.638,0.006,3.216-0.392,4.619-1.148
			L19.782,23.944L19.782,23.944z"/>
		<path d="M76.482,27.392h-1.474v0.868h7.081v-0.862h-1.614c-0.494,0-0.576-0.296-0.576-0.659l0.006-11.229
			c0-0.988-0.33-4.413-4.215-4.413c-3.886,0-4.973,3.063-5.598,3.985l-0.132-0.004l-0.012-3.388c0-0.395,0.07-0.59-0.745-0.329
			c-0.824,0.263-3.228,0.189-4.545,0.189v0.584h1.869c0.395,0,0.519,0.058,0.519,0.552V26.84c0,0.494-0.124,0.552-0.519,0.552
			h-1.474v0.868h7.08v-0.862H70.47c-0.494,0-0.526-0.066-0.526-0.527v-8.923c0-1.91,1.663-5.73,4.89-5.73
			c2.437,0,2.182,3.228,2.182,3.228l-0.014,11.264C77.001,27.202,76.877,27.392,76.482,27.392L76.482,27.392z"/>
		<path d="M36.386,5.527c0-0.429-0.115-0.609-0.609-0.609h-1.811V4.182h9.879c0.56,0,6.455-0.033,6.455,5.269
			s-5.104,5.812-6.026,6.042v0.099c0,0,2.075,0.412,3.326,1.696c1.58,1.622,1.877,2.568,1.877,5.533c0,2.963,0.23,4.676,1.91,4.676
			c1.679,0,2.173-0.955,2.7-1.416l0.461,0.659c-0.988,1.186-2.602,1.778-3.557,1.778s-2.371-0.23-3.853-1.844
			c-1.482-1.614-1.26-4.668-1.26-6.841c0-2.338-2.132-4.103-3.779-4.103h-1.877c-0.296,0-0.478,0.115-0.478,0.478v10.658
			c0,0.46,0.033,0.527,0.527,0.527h1.894v0.862h-8.233v-0.855h1.935c0.395,0,0.519-0.058,0.519-0.551V5.527L36.386,5.527z
			 M43.153,14.846c1.712,0,3.886-0.786,3.886-4.968s-2.141-4.952-3.458-4.952h-3.367c-0.296,0-0.478,0.115-0.478,0.478v8.962
			c0,0.362,0.181,0.477,0.478,0.477L43.153,14.846L43.153,14.846z"/>
		<path d="M124.922,26.883c0,0.461,0.032,0.527,0.526,0.527h1.969v0.863h-8.059v-0.868h2.146c0.395,0,0.519-0.058,0.519-0.552V5.954
			c0-0.46-0.214-0.642-0.642-0.642h-2.289V4.654c3.301,0,4.444-0.146,5.828-0.522L124.922,26.883L124.922,26.883z"/>
		<path d="M162.92,12.965c-0.083,0.693,0.184,2.144,1.552,2.144c1.515,0,1.638-1.351,1.646-1.482c0.033-0.494,0-2.602-2.371-2.602
			c-1.976,0-3.458,2.306-4.282,3.886h-0.157v-3.443c0-0.092-0.028-0.231-0.242-0.17c-1.485,0.303-4.418,0.33-5.601,0.33v0.674
			c0.645-0.011,2.297,0.1,2.297,0.1c0.428,0,0.642,0.181,0.642,0.642l-0.001,13.81c0,0.494-0.123,0.552-0.519,0.552h-1.935v0.868
			h8.2V27.41h-2.322c-0.494,0-0.527-0.065-0.527-0.527v-8.923c0-2.375,1.798-4.805,2.953-5.252
			C162.623,12.585,162.966,12.552,162.92,12.965L162.92,12.965z"/>
		<path d="M136.154,25.663c-0.036,0.06-0.118,0.138-0.2,0.253c-1.118,1.565-3.161,2.437-4.874,2.437
			c-1.251,0-4.348-1.119-4.348-4.346c0-4.545,6.323-5.862,8.694-5.862c0.527,0,0.527-0.329,0.527-0.791v-3.82
			c0-0.659,0.132-2.239-2.7-2.239c-2.833,0-3.952,1.383-4.215,1.646c-0.263,0.264-0.659,0.593,0.066,0.856
			c0.725,0.263,0.988,0.856,0.988,1.516c0,0.658-0.461,1.185-1.12,1.185c-0.905,0-1.626-0.604-1.626-1.602
			c0-3.491,4.59-4.26,6.632-4.26c2.042,0,4.675,0.659,4.675,3.358v10.934c0,0-0.131,1.646,1.121,1.646
			c1.251,0,1.613-1.284,2.042-2.47h0.527c-0.28,1.499-1.712,4.182-3.623,4.182c-1.909,0-2.37-1.91-2.37-2.239
			c0-0.109-0.008-0.277-0.021-0.389L136.154,25.663L136.154,25.663z M132.727,26.904c2.239,0,3.227-2.305,3.227-3.293v-4.215
			c0,0,0.198-0.593-0.79-0.593c-3.688,0-5.928,1.844-5.928,4.478C129.236,24.928,130.487,26.904,132.727,26.904L132.727,26.904z"/>
		<path d="M81.967,22.689h0.576c0.264,1.12,2.045,5.407,5.635,5.407c3.59,0,3.919-3.398,3.919-3.958c0-0.56,0.066-2.437-3.886-2.964
			c-3.952-0.527-6.29-2.239-6.29-5.17s2.141-5.269,5.236-5.269c2.503,0,3.524,1.713,3.524,1.713h0.165l0.757-1.219h0.388v4.709
			h-0.519c-0.231-1.054-1.383-4.588-4.282-4.588c-2.897,0-3.752,2.489-3.752,3.707c0,2.634,4.542,2,6.88,2.989
			c2.315,0.978,3.063,2.898,3.063,4.874c0,1.844-0.955,5.795-5.269,5.795c-1.943,0-3.82-1.186-4.413-1.877l-1.317,1.416h-0.416
			L81.967,22.689L81.967,22.689z"/>
		<path d="M65.068,22.75c-1.053,3.732-2.875,5.962-6.355,5.962c-1.972,0-3.991-0.94-5.129-2.56
			c-1.351-1.924-2.156-3.755-2.156-6.277c0-4.897,3.107-9.422,6.93-9.422c3.392,0,6.673,2.883,6.673,6.638
			c0,0.197,0.024,0.873,0.024,0.873l-9.774,0.005c-0.296,0-0.478,0.115-0.478,0.478v4.44c0,1.383,0.494,5.013,4.413,5.013
			c3.67,0,4.759-3.988,5.245-5.332L65.068,22.75L65.068,22.75z M61.995,15.279c0-0.955-0.408-4.218-3.603-4.218
			c-3.062,0-3.596,3-3.596,4.218v1.325c0,0.363,0.181,0.478,0.478,0.478h6.242c0.296,0,0.478-0.115,0.478-0.478L61.995,15.279
			L61.995,15.279z"/>
		<path d="M94.079,22.689h0.576c0.264,1.12,2.045,5.407,5.635,5.407s3.919-3.398,3.919-3.958c0-0.56,0.066-2.437-3.886-2.964
			c-3.952-0.527-6.291-2.239-6.291-5.17s2.141-5.269,5.237-5.269c2.502,0,3.523,1.713,3.523,1.713h0.165l0.757-1.219h0.388v4.709
			h-0.52c-0.23-1.054-1.382-4.588-4.281-4.588s-3.752,2.489-3.752,3.707c0,2.634,4.542,2,6.88,2.989
			c2.315,0.978,3.063,2.898,3.063,4.874c0,1.844-0.955,5.795-5.269,5.795c-1.943,0-3.821-1.186-4.413-1.877l-1.317,1.416h-0.416
			L94.079,22.689L94.079,22.689z"/>
		<path d="M120.271,22.75c-1.053,3.732-2.875,5.962-6.355,5.962c-1.974,0-3.991-0.94-5.129-2.56
			c-1.351-1.924-2.156-3.755-2.156-6.277c0-4.897,3.107-9.422,6.931-9.422c3.392,0,6.672,2.883,6.672,6.638
			c0,0.197,0.024,0.873,0.024,0.873l-9.775,0.005c-0.296,0-0.478,0.115-0.478,0.478v4.44c0,1.383,0.494,5.013,4.413,5.013
			c3.67,0,4.817-4.006,5.246-5.332L120.271,22.75L120.271,22.75z M117.199,15.279c0-0.955-0.409-4.218-3.603-4.218
			c-3.062,0-3.596,3-3.596,4.218v1.325c0,0.363,0.181,0.478,0.478,0.478h6.241c0.297,0,0.478-0.115,0.478-0.478L117.199,15.279
			L117.199,15.279z"/>
		<path d="M154.373,22.75c-1.054,3.732-2.875,5.962-6.356,5.962c-1.973,0-3.992-0.94-5.129-2.56
			c-1.352-1.924-2.156-3.755-2.156-6.277c0-4.897,3.107-9.422,6.93-9.422c3.392,0,6.672,2.883,6.672,6.638
			c0,0.197,0.024,0.873,0.024,0.873l-9.774,0.005c-0.296,0-0.478,0.115-0.478,0.478v4.44c0,1.383,0.494,5.013,4.412,5.013
			c3.67,0,4.817-4.006,5.246-5.332L154.373,22.75L154.373,22.75z M151.299,15.279c0-0.955-0.408-4.218-3.603-4.218
			c-3.062,0-3.596,3-3.596,4.218v1.325c0,0.363,0.181,0.478,0.477,0.478h6.242c0.296,0,0.478-0.115,0.478-0.478L151.299,15.279
			L151.299,15.279z"/>
		<path d="M22.363,8.562L8.669,8.564l0.607,0.41C9.27,8.97,9.514,9.154,9.514,9.154c0.287,0.218,0.594,0.749,0.632,1.443
			c0.06,1.086,0.033,2.873,0.013,4.176l-0.013,1.586c0.034,1.882,1.327,2.741,1.382,2.776c-0.015-0.011,2.803,2.449,2.803,2.449
			l0.39-0.06l-3.011-2.629c-0.029-0.021-1.23-0.826-1.262-2.542l0.014-1.575c0.011-0.707,0.023-1.554,0.023-2.357
			c0-0.684-0.009-1.336-0.037-1.84c-0.046-0.845-0.434-1.427-0.751-1.668c0,0-0.038-0.029-0.061-0.046
			c0.846,0,11.405-0.002,12.253-0.002c-0.022,0.017-0.06,0.045-0.06,0.045c-0.318,0.242-0.705,0.824-0.751,1.668
			c-0.028,0.504-0.037,1.155-0.037,1.838c0,0.803,0.013,1.65,0.023,2.355l0.014,1.58c-0.031,1.716-1.232,2.52-1.245,2.528
			c-0.017,0.013-3.06,2.645-3.06,2.645l0.389,0.067l2.853-2.471c0.038-0.022,1.332-0.881,1.365-2.764l-0.013-1.59
			c-0.02-1.303-0.047-3.087,0.013-4.172c0.038-0.695,0.345-1.225,0.632-1.444l0.244-0.186c-0.006,0.005,0.19-0.127,0.19-0.127
			l0.413-0.277H22.363L22.363,8.562z"/>
		<line fill="none" stroke="#000000" stroke-width="0.2107" x1="21.197" y1="13.252" x2="10.328" y2="13.252"/>
		<path d="M17.125,13.252v8.275c0,0,2.43-2.069,3.218-2.823c0.788-0.755,0.92-1.708,0.887-2.365l-0.033-3.086H17.125L17.125,13.252z
			"/>
		<path d="M14.465,13.252v8.275c0,0-2.43-2.069-3.218-2.823c-0.789-0.755-0.92-1.708-0.887-2.365l0.033-3.086H14.465L14.465,13.252z
			"/>
		<path fill="none" stroke="#000000" stroke-width="0.316" d="M16.211,15.357v-1.382H15.39v1.398 M15.39,17.395v3.409h0.821v-3.401
			 M15.814,17.475c0.604,0,1.093-0.49,1.093-1.093s-0.489-1.093-1.093-1.093c-0.604,0-1.093,0.489-1.093,1.093
			S15.21,17.475,15.814,17.475L15.814,17.475z M14.71,16.256c0,0-0.023,0-0.078,0c-0.151,0-0.141,0.236,0.014,0.236
			c0.059,0,0.069,0,0.069,0"/>
		<path fill="none" stroke="#000000" stroke-width="0.2107" d="M15.538,14v1.321 M15.538,17.425v3.379 M16.063,14v1.299
			 M16.063,17.433v3.371"/>
		<path fill="none" stroke="#000000" stroke-width="0.158" d="M16.042,15.201h-0.197 M16.042,14.456h-0.197 M16.042,14.629H15.91
			 M16.042,14.764H15.91 M16.042,14.17H15.91 M16.042,14.038H15.91 M16.042,14.305H15.91 M16.042,14.894H15.91 M16.042,15.061H15.91
			 M16.042,17.911h-0.197 M16.042,17.518H15.91 M16.042,17.652H15.91 M16.042,17.785H15.91 M16.042,18.542h-0.197 M16.042,18.027
			H15.91 M16.042,18.148H15.91 M16.042,18.282H15.91 M16.042,18.416H15.91 M16.042,19.191h-0.197 M16.042,18.678H15.91
			 M16.042,18.799H15.91 M16.042,18.933H15.91 M16.042,19.066H15.91 M16.042,19.861h-0.197 M16.042,19.348H15.91 M16.042,19.469
			H15.91 M16.042,19.603H15.91 M16.042,19.736H15.91 M16.042,20.474h-0.197 M16.042,19.979H15.91 M16.042,20.1H15.91 M16.042,20.215
			H15.91 M16.042,20.349H15.91 M16.042,20.565H15.91 M16.042,20.699H15.91"/>
		<path d="M15.724,14.638c-0.068,0-0.104-0.051-0.104-0.118c0-0.037,0.012-0.094,0.061-0.142c0.047-0.046,0.109-0.062,0.142-0.065
			c0.002,0.001,0.003,0.009,0.001,0.012c-0.029,0.01-0.07,0.026-0.1,0.058c-0.035,0.039-0.048,0.091-0.049,0.131
			c-0.001,0.057,0.018,0.106,0.055,0.106c0.031,0,0.043-0.028,0.043-0.059c0-0.044-0.019-0.083-0.053-0.083
			c-0.007,0-0.011,0-0.016,0.002c-0.003-0.001-0.004-0.006-0.003-0.009c0.014-0.012,0.032-0.017,0.049-0.017
			c0.043,0,0.074,0.036,0.073,0.087C15.822,14.599,15.781,14.638,15.724,14.638L15.724,14.638z"/>
		<path d="M15.803,14.96c0.002,0,0.004,0.002,0.004,0.005c-0.002,0.012-0.009,0.027-0.018,0.038l-0.095,0.012
			c-0.013,0.002-0.014,0.002-0.017,0.013l-0.004,0.017c-0.001,0.005,0,0.007,0.009,0.008l0.032,0.005
			c0.037,0.007,0.104,0.026,0.104,0.099c0,0.083-0.099,0.133-0.173,0.136c-0.005-0.002-0.007-0.011-0.003-0.016
			c0.065-0.008,0.131-0.04,0.131-0.104c0-0.064-0.066-0.078-0.118-0.08c-0.009,0-0.011-0.002-0.008-0.014l0.025-0.09
			c0.002-0.007,0.004-0.012,0.012-0.012L15.803,14.96L15.803,14.96z"/>
		<path d="M15.792,17.768c0.003,0,0.004,0.002,0.004,0.004c-0.003,0.012-0.009,0.027-0.018,0.038l-0.095,0.013
			c-0.014,0.002-0.015,0.002-0.017,0.013l-0.004,0.016c-0.001,0.005,0,0.007,0.009,0.009l0.033,0.005
			c0.037,0.006,0.103,0.026,0.103,0.098c0,0.083-0.098,0.133-0.172,0.136c-0.005-0.003-0.008-0.011-0.003-0.016
			c0.065-0.008,0.131-0.041,0.131-0.104s-0.067-0.079-0.118-0.08c-0.009,0-0.011-0.001-0.008-0.014l0.025-0.09
			c0.001-0.007,0.004-0.012,0.012-0.012L15.792,17.768L15.792,17.768z"/>
		<path d="M15.717,18.409c0.032,0,0.058,0.016,0.074,0.036c0.017,0.021,0.025,0.051,0.024,0.088
			c-0.001,0.048-0.019,0.104-0.073,0.147c-0.037,0.03-0.082,0.045-0.112,0.051c-0.004-0.002-0.006-0.01-0.002-0.014
			c0.026-0.009,0.049-0.022,0.065-0.034c0.037-0.029,0.065-0.074,0.067-0.158c0.001-0.054-0.013-0.099-0.047-0.099
			c-0.021,0-0.04,0.02-0.041,0.059c-0.002,0.036,0.018,0.076,0.046,0.076c0.007,0,0.012,0,0.015-0.001
			c0.003,0.001,0.005,0.005,0.003,0.01c-0.012,0.008-0.026,0.013-0.043,0.013c-0.04,0-0.073-0.03-0.073-0.082
			C15.623,18.444,15.667,18.409,15.717,18.409L15.717,18.409z"/>
		<path d="M15.806,19.113c0,0.038-0.03,0.055-0.051,0.066c0.028,0.016,0.06,0.042,0.06,0.087c0,0.051-0.047,0.078-0.097,0.078
			c-0.045,0-0.094-0.019-0.094-0.072c0-0.039,0.028-0.063,0.061-0.077c-0.024-0.013-0.052-0.038-0.052-0.072
			c0-0.048,0.038-0.08,0.091-0.08C15.769,19.043,15.806,19.068,15.806,19.113L15.806,19.113z M15.766,19.281
			c0-0.036-0.026-0.059-0.064-0.078c-0.021,0.017-0.033,0.036-0.033,0.065c0,0.034,0.022,0.057,0.052,0.057
			C15.745,19.326,15.766,19.309,15.766,19.281L15.766,19.281z M15.678,19.109c0,0.031,0.034,0.048,0.061,0.06
			c0.017-0.014,0.026-0.032,0.026-0.056c0-0.026-0.016-0.051-0.044-0.051C15.693,19.062,15.678,19.084,15.678,19.109L15.678,19.109z
			"/>
		<path d="M15.766,19.685c0.025,0,0.055,0,0.061,0c0.002,0,0.003,0.001,0.003,0.005c-0.011,0.018-0.026,0.042-0.045,0.08
			l-0.12,0.233c-0.007,0.001-0.019-0.003-0.02-0.011l0.118-0.224c0.009-0.018,0.015-0.034,0.015-0.038
			c0-0.002-0.002-0.004-0.01-0.004h-0.093c-0.023,0-0.039,0.002-0.048,0.021c-0.003,0.002-0.01,0.001-0.011-0.003
			c0.007-0.022,0.011-0.042,0.016-0.059c0.009,0,0.023,0,0.049,0H15.766L15.766,19.685z"/>
		<path d="M15.724,20.614c-0.068,0-0.104-0.051-0.104-0.117c0-0.039,0.012-0.095,0.061-0.143c0.047-0.046,0.109-0.062,0.142-0.065
			c0.002,0.001,0.003,0.008,0.001,0.012c-0.029,0.01-0.07,0.025-0.1,0.058c-0.035,0.038-0.048,0.091-0.049,0.131
			c-0.001,0.056,0.018,0.105,0.055,0.105c0.031,0,0.043-0.028,0.043-0.059c0-0.044-0.019-0.084-0.053-0.084
			c-0.007,0-0.011,0.002-0.016,0.003c-0.003,0-0.004-0.005-0.003-0.009c0.014-0.012,0.032-0.017,0.049-0.017
			c0.043,0,0.074,0.036,0.073,0.087C15.822,20.575,15.781,20.614,15.724,20.614L15.724,20.614z"/>
		<path fill="none" stroke="#000000" stroke-width="0.316" d="M15.779,13.252V8.768 M21.164,11.108H10.328"/>
		<path fill="none" stroke="#000000" stroke-width="0.2107" d="M16.239,15.794h-0.701l-0.143,0.109v0.947h0.69l0.156-0.187
			L16.239,15.794L16.239,15.794z M15.407,15.912h0.668v0.914 M16.075,15.912l0.142-0.11"/>
		<path fill="none" stroke="#000000" stroke-width="0.158" d="M16.061,16.374h-0.237 M16.061,15.996h-0.172 M16.061,16.115h-0.172
			 M16.061,16.249h-0.172 M16.061,16.51h-0.172 M16.061,16.631h-0.172 M16.061,16.756h-0.172"/>
		<path d="M15.767,16.293c0,0.019-0.007,0.038-0.049,0.058c-0.003,0.003,0,0.007,0.006,0.007c0.035,0.003,0.066,0.027,0.066,0.072
			c0,0.075-0.08,0.131-0.148,0.131c-0.022,0-0.046-0.01-0.046-0.03c0-0.012,0.01-0.021,0.022-0.021c0.013,0,0.022,0.013,0.025,0.017
			c0.009,0.01,0.016,0.014,0.026,0.014c0.021,0,0.068-0.032,0.068-0.088c0-0.039-0.019-0.07-0.058-0.07
			c-0.018,0-0.034,0.009-0.045,0.019c-0.007-0.001-0.014-0.011-0.01-0.019c0.03-0.014,0.091-0.031,0.091-0.078
			c0-0.026-0.017-0.04-0.036-0.04c-0.022,0-0.041,0.015-0.057,0.038c-0.004,0.003-0.009-0.001-0.01-0.007
			c0.016-0.034,0.05-0.056,0.086-0.056C15.741,16.242,15.767,16.264,15.767,16.293L15.767,16.293z"/>
		<path d="M15.627,8.929l-0.007,2.033c0,0-5.08-0.003-5.08-0.003c0.005,0,0.009-0.088,0.009-0.203c0-0.38-0.103-1.261-0.722-1.827
			C9.922,8.929,15.627,8.929,15.627,8.929L15.627,8.929z M13.165,9.182c0.036,0.003,0.087-0.039,0.087-0.087
			c0,0,0.02-0.122-0.117-0.118c-0.09,0.002-0.123,0.096-0.123,0.096S12.98,8.979,12.89,8.977c-0.137-0.003-0.117,0.118-0.117,0.118
			c0,0.048,0.052,0.09,0.087,0.087v0.614h-0.624c0.002-0.035-0.039-0.088-0.087-0.088c0,0-0.124-0.02-0.12,0.115
			c0.002,0.09,0.096,0.122,0.096,0.122s-0.094,0.031-0.096,0.122c-0.004,0.134,0.12,0.115,0.12,0.115
			c0.048,0,0.09-0.051,0.087-0.086h0.62l0.001,0.618c-0.036-0.003-0.09,0.038-0.09,0.086c0,0-0.019,0.122,0.117,0.119
			c0.09-0.003,0.123-0.095,0.123-0.095s0.032,0.092,0.123,0.095c0.136,0.003,0.116-0.119,0.116-0.119
			c0-0.048-0.042-0.089-0.078-0.086v-0.618l0.615,0.002c-0.003,0.035,0.039,0.089,0.087,0.089c0,0,0.123,0.019,0.12-0.115
			c-0.002-0.09-0.097-0.122-0.097-0.122s0.094-0.032,0.097-0.122c0.003-0.134-0.12-0.116-0.12-0.116
			c-0.049,0-0.09,0.052-0.087,0.087h-0.62L13.165,9.182L13.165,9.182z"/>
		<path fill="none" stroke="#000000" stroke-width="0.1406" stroke-linecap="round" d="M12.865,9.203
			c0.062,0.011,0.075-0.07,0.022-0.09 M12.262,9.799c0.011,0.061-0.07,0.074-0.091,0.022 M12.262,10.091
			c0.011-0.062-0.07-0.075-0.091-0.022 M12.86,10.692c0.062-0.011,0.075,0.07,0.022,0.091 M13.154,10.692
			c-0.062-0.011-0.075,0.07-0.022,0.091 M13.76,10.096c-0.011-0.062,0.07-0.075,0.091-0.022 M13.76,9.804
			c-0.011,0.062,0.07,0.074,0.091,0.022 M13.16,9.203c-0.062,0.011-0.075-0.07-0.022-0.09"/>
		<path fill="none" stroke="#000000" stroke-width="0.1391" stroke-linecap="round" d="M13.01,9.005v1.9 M12.021,9.947h1.956"/>
		<path d="M21.538,9.418c0,0,0.003,0.003-0.279,0.003h-0.844v0.271H19.66V9.421h-0.745v0.271h-0.734V9.421h-0.744v0.271h-0.744
			V9.421h-0.889l-0.01,0.5h0.898v0.285h0.744V9.922h0.734v0.285h0.744V9.922h0.754v0.285h0.745V9.922h0.849h0.036L21.538,9.418
			L21.538,9.418z"/>
		<path fill="none" stroke="#000000" stroke-width="0.2107" d="M17.055,8.863l0.095,0.166l0.191,0l-0.096,0.166l0.096,0.166H17.15
			l-0.095,0.166L16.959,9.36h-0.192l0.097-0.166l-0.097-0.166l0.192,0L17.055,8.863L17.055,8.863z M20.029,8.863l0.096,0.166
			l0.191,0L20.22,9.195l0.096,0.166h-0.191l-0.096,0.166L19.934,9.36h-0.192l0.096-0.166l-0.096-0.166l0.192,0L20.029,8.863
			L20.029,8.863z M18.55,10.312l0.096,0.166h0.191l-0.096,0.166l0.096,0.166l-0.191,0l-0.096,0.166l-0.095-0.166l-0.191,0
			l0.096-0.166l-0.096-0.166h0.191L18.55,10.312L18.55,10.312z"/>
		<path fill="none" stroke="#000000" stroke-width="0.1264" stroke-linejoin="round" d="M14.478,12.148
			c0.273,0,0.666-0.046,0.676-0.114c0.01-0.066,0.067-0.297,0.229-0.388c-0.072-0.052-0.129-0.057-0.22,0.029
			c-0.053-0.053-0.115-0.005-0.159,0.034c0.102,0.037,0.094,0.09,0.048,0.125c-0.045,0.035-0.095,0.044-0.172,0.016
			c-0.059-0.022-0.129-0.061-0.115-0.118c0.009-0.04,0.04-0.09,0.12-0.056c-0.067-0.225-0.296-0.144-0.296-0.144
			s-0.059-0.158-0.111-0.158s-0.112,0.158-0.112,0.158s-0.229-0.082-0.296,0.144c0.081-0.034,0.111,0.017,0.12,0.056
			c0.014,0.057-0.047,0.096-0.106,0.118c-0.077,0.028-0.136,0.02-0.182-0.016c-0.046-0.035-0.054-0.088,0.048-0.125
			c-0.043-0.039-0.105-0.086-0.158-0.034c-0.091-0.085-0.148-0.081-0.22-0.029c0.163,0.091,0.22,0.321,0.23,0.388
			C13.811,12.102,14.205,12.148,14.478,12.148L14.478,12.148z"/>
		<path fill="none" stroke="#000000" stroke-width="0.1896" d="M13.819,12.058c0-0.068,0.377-0.114,0.65-0.114
			c0.273,0,0.656,0.046,0.656,0.114"/>
		<path fill="none" stroke="#000000" stroke-width="0.158" stroke-linejoin="round" d="M14.414,11.959v0.171 M14.307,11.97v0.152
			 M14.201,11.975v0.139 M14.095,11.986v0.118 M13.988,11.997v0.099 M13.882,12.016v0.072 M14.52,11.959v0.171 M14.625,11.97v0.176
			 M14.732,11.982v0.137 M14.838,11.993v0.111 M14.944,12.004v0.092 M15.05,12.016v0.072"/>
		<path fill="none" stroke="#000000" stroke-width="0.1264" stroke-linejoin="round" d="M14.879,11.675
			c-0.043-0.019-0.159,0.092,0.013,0.178 M14.073,11.674c0.043-0.02,0.165,0.093-0.007,0.179 M13.957,11.704
			c0,0-0.104,0.065-0.061,0.122 M14.986,11.707c0,0,0.117,0.063,0.072,0.12"/>
		<path d="M14.472,11.825c0,0.007,0.008,0.008,0.009-0.001c0.006-0.062,0.016-0.229,0.02-0.262c0.004-0.043-0.053-0.042-0.048,0
			C14.455,11.592,14.463,11.763,14.472,11.825L14.472,11.825z"/>
		<path d="M14.688,11.621c-0.049,0-0.115,0.052-0.092,0.169c0.002,0.009,0.016,0.008,0.015-0.002
			c-0.001-0.01,0.001-0.109,0.083-0.144C14.705,11.643,14.703,11.621,14.688,11.621L14.688,11.621z"/>
		<path d="M14.262,11.621c0.049,0,0.115,0.052,0.091,0.169c-0.002,0.009-0.016,0.008-0.015-0.002
			c0.001-0.01-0.001-0.109-0.084-0.144C14.245,11.643,14.246,11.621,14.262,11.621L14.262,11.621z"/>
		<path d="M14.345,11.857c-0.007,0-0.013-0.006-0.013-0.013c0-0.006,0.005-0.012,0.013-0.012c0.007,0,0.013,0.006,0.013,0.012
			C14.358,11.851,14.352,11.857,14.345,11.857L14.345,11.857z"/>
		<path d="M14.28,11.906c-0.006,0-0.011-0.005-0.011-0.011c0-0.006,0.005-0.01,0.011-0.01s0.011,0.004,0.011,0.01
			C14.291,11.9,14.286,11.906,14.28,11.906L14.28,11.906z"/>
		<path d="M14.189,11.916c-0.006,0-0.011-0.006-0.011-0.011c0-0.007,0.005-0.012,0.011-0.012c0.007,0,0.012,0.005,0.012,0.012
			C14.201,11.91,14.196,11.916,14.189,11.916L14.189,11.916z"/>
		<path d="M14.082,11.932c-0.007,0-0.013-0.006-0.013-0.013c0-0.006,0.006-0.012,0.013-0.012c0.007,0,0.013,0.006,0.013,0.012
			C14.095,11.926,14.089,11.932,14.082,11.932L14.082,11.932z"/>
		<path d="M13.977,11.948c-0.008,0-0.015-0.006-0.015-0.014c0-0.008,0.006-0.014,0.015-0.014c0.007,0,0.014,0.006,0.014,0.014
			C13.991,11.942,13.984,11.948,13.977,11.948L13.977,11.948z"/>
		<path d="M13.869,11.97c-0.008,0-0.015-0.007-0.015-0.016s0.007-0.015,0.015-0.015s0.015,0.006,0.015,0.015
			S13.877,11.97,13.869,11.97L13.869,11.97z"/>
		<path d="M14.668,11.906c0.006,0,0.011-0.005,0.011-0.011c0-0.006-0.005-0.01-0.011-0.01s-0.011,0.004-0.011,0.01
			C14.658,11.9,14.663,11.906,14.668,11.906L14.668,11.906z"/>
		<path d="M14.76,11.916c0.006,0,0.012-0.006,0.012-0.011c0-0.007-0.005-0.012-0.012-0.012c-0.006,0-0.011,0.005-0.011,0.012
			C14.749,11.91,14.754,11.916,14.76,11.916L14.76,11.916z"/>
		<path d="M14.867,11.932c0.007,0,0.013-0.006,0.013-0.013c0-0.006-0.006-0.012-0.013-0.012s-0.013,0.006-0.013,0.012
			C14.854,11.926,14.86,11.932,14.867,11.932L14.867,11.932z"/>
		<path d="M14.972,11.948c0.008,0,0.014-0.006,0.014-0.014c0-0.008-0.006-0.014-0.014-0.014c-0.008,0-0.014,0.006-0.014,0.014
			C14.958,11.942,14.964,11.948,14.972,11.948L14.972,11.948z"/>
		<path d="M15.08,11.97c0.008,0,0.016-0.007,0.016-0.016s-0.007-0.015-0.016-0.015c-0.009,0-0.015,0.006-0.015,0.015
			S15.071,11.97,15.08,11.97L15.08,11.97z"/>
		<path d="M14.604,11.857c-0.007,0-0.013-0.006-0.013-0.013c0-0.006,0.006-0.012,0.013-0.012c0.007,0,0.013,0.006,0.013,0.012
			C14.616,11.851,14.611,11.857,14.604,11.857L14.604,11.857z"/>
		<path d="M13.833,11.721c-0.011,0.023-0.034,0.041-0.002,0.115c0.004,0.022-0.005,0.033-0.02,0.01
			c-0.024-0.041-0.034-0.103-0.007-0.134C13.83,11.68,13.839,11.708,13.833,11.721L13.833,11.721z"/>
		<path d="M13.769,11.74c-0.008-0.026-0.019-0.052-0.055-0.062c-0.019-0.006-0.023,0.006-0.009,0.011s0.032,0.012,0.049,0.042
			C13.77,11.76,13.771,11.75,13.769,11.74L13.769,11.74z"/>
		<path d="M15.115,11.721c0.011,0.023,0.034,0.041,0.003,0.115c-0.005,0.022,0.005,0.033,0.019,0.01
			c0.024-0.041,0.034-0.103,0.008-0.134C15.119,11.68,15.109,11.708,15.115,11.721L15.115,11.721z"/>
		<path d="M15.181,11.74c0.007-0.026,0.018-0.052,0.056-0.062c0.018-0.006,0.022,0.006,0.008,0.011
			c-0.014,0.004-0.031,0.012-0.049,0.042C15.179,11.76,15.177,11.75,15.181,11.74L15.181,11.74z"/>
		<path fill="none" stroke="#000000" stroke-width="0.1896" stroke-linejoin="round" d="M13.82,12.026
			c0.009,0.067,0.381,0.143,0.654,0.143c0.273,0,0.66-0.073,0.662-0.133"/>
		<path fill="none" stroke="#000000" stroke-width="0.1264" stroke-linejoin="round" d="M11.68,12.148
			c0.273,0,0.666-0.046,0.676-0.114c0.009-0.066,0.067-0.297,0.23-0.388c-0.072-0.052-0.129-0.057-0.221,0.029
			c-0.053-0.053-0.115-0.005-0.158,0.034c0.102,0.037,0.093,0.09,0.047,0.125c-0.045,0.035-0.095,0.044-0.172,0.016
			c-0.059-0.022-0.129-0.061-0.115-0.118c0.009-0.04,0.04-0.09,0.12-0.056c-0.067-0.225-0.297-0.144-0.297-0.144
			s-0.059-0.158-0.111-0.158s-0.111,0.158-0.111,0.158s-0.23-0.082-0.297,0.144c0.081-0.034,0.111,0.017,0.12,0.056
			c0.013,0.057-0.047,0.096-0.105,0.118c-0.078,0.028-0.136,0.02-0.182-0.016c-0.046-0.035-0.054-0.088,0.047-0.125
			c-0.043-0.039-0.105-0.086-0.158-0.034c-0.091-0.085-0.149-0.081-0.221-0.029c0.163,0.091,0.221,0.321,0.23,0.388
			C11.013,12.102,11.407,12.148,11.68,12.148L11.68,12.148z"/>
		<path fill="none" stroke="#000000" stroke-width="0.1896" d="M11.021,12.058c0-0.068,0.377-0.114,0.65-0.114
			s0.657,0.046,0.657,0.114"/>
		<path fill="none" stroke="#000000" stroke-width="0.158" stroke-linejoin="round" d="M11.615,11.959v0.171 M11.509,11.97v0.152
			 M11.403,11.975v0.139 M11.297,11.986v0.118 M11.19,11.997v0.099 M11.084,12.016v0.072 M11.722,11.959v0.171 M11.828,11.97v0.176
			 M11.934,11.982v0.137 M12.04,11.993v0.111 M12.146,12.004v0.092 M12.252,12.016v0.072"/>
		<path fill="none" stroke="#000000" stroke-width="0.1264" stroke-linejoin="round" d="M12.081,11.675
			c-0.043-0.019-0.159,0.092,0.013,0.178 M11.276,11.674c0.043-0.02,0.165,0.093-0.008,0.179 M11.159,11.704
			c0,0-0.104,0.065-0.061,0.122 M12.188,11.707c0,0,0.117,0.063,0.073,0.12"/>
		<path d="M11.673,11.825c0.001,0.007,0.008,0.008,0.009-0.001c0.006-0.062,0.016-0.229,0.019-0.262
			c0.005-0.043-0.053-0.042-0.048,0C11.657,11.592,11.666,11.763,11.673,11.825L11.673,11.825z"/>
		<path d="M11.89,11.621c-0.049,0-0.116,0.052-0.092,0.169c0.003,0.009,0.016,0.008,0.015-0.002
			c-0.001-0.01,0.001-0.109,0.083-0.144C11.906,11.643,11.906,11.621,11.89,11.621L11.89,11.621z"/>
		<path d="M11.464,11.621c0.048,0,0.115,0.052,0.091,0.169c-0.002,0.009-0.016,0.008-0.016-0.002c0.001-0.01,0-0.109-0.083-0.144
			C11.447,11.643,11.448,11.621,11.464,11.621L11.464,11.621z"/>
		<path d="M11.547,11.857c-0.007,0-0.013-0.006-0.013-0.013c0-0.006,0.005-0.012,0.013-0.012s0.013,0.006,0.013,0.012
			C11.561,11.851,11.555,11.857,11.547,11.857L11.547,11.857z"/>
		<path d="M11.482,11.906c-0.006,0-0.011-0.005-0.011-0.011c0-0.006,0.005-0.01,0.011-0.01s0.011,0.004,0.011,0.01
			C11.493,11.9,11.488,11.906,11.482,11.906L11.482,11.906z"/>
		<path d="M11.391,11.916c-0.006,0-0.011-0.006-0.011-0.011c0-0.007,0.005-0.012,0.011-0.012s0.011,0.005,0.011,0.012
			C11.402,11.91,11.397,11.916,11.391,11.916L11.391,11.916z"/>
		<path d="M11.284,11.932c-0.008,0-0.013-0.006-0.013-0.013c0-0.006,0.005-0.012,0.013-0.012c0.007,0,0.013,0.006,0.013,0.012
			C11.297,11.926,11.291,11.932,11.284,11.932L11.284,11.932z"/>
		<path d="M11.179,11.948c-0.008,0-0.015-0.006-0.015-0.014c0-0.008,0.007-0.014,0.015-0.014c0.007,0,0.014,0.006,0.014,0.014
			C11.193,11.942,11.187,11.948,11.179,11.948L11.179,11.948z"/>
		<path d="M11.071,11.97c-0.008,0-0.015-0.007-0.015-0.016s0.006-0.015,0.015-0.015c0.009,0,0.015,0.006,0.015,0.015
			S11.08,11.97,11.071,11.97L11.071,11.97z"/>
		<path d="M11.871,11.906c0.006,0,0.011-0.005,0.011-0.011c0-0.006-0.005-0.01-0.011-0.01c-0.006,0-0.01,0.004-0.01,0.01
			C11.86,11.9,11.865,11.906,11.871,11.906L11.871,11.906z"/>
		<path d="M11.962,11.916c0.006,0,0.011-0.006,0.011-0.011c0-0.007-0.005-0.012-0.011-0.012c-0.007,0-0.012,0.005-0.012,0.012
			C11.951,11.91,11.956,11.916,11.962,11.916L11.962,11.916z"/>
		<path d="M12.069,11.932c0.007,0,0.012-0.006,0.012-0.013c0-0.006-0.005-0.012-0.012-0.012s-0.013,0.006-0.013,0.012
			C12.057,11.926,12.062,11.932,12.069,11.932L12.069,11.932z"/>
		<path d="M12.174,11.948c0.007,0,0.014-0.006,0.014-0.014c0-0.008-0.007-0.014-0.014-0.014c-0.008,0-0.014,0.006-0.014,0.014
			C12.16,11.942,12.167,11.948,12.174,11.948L12.174,11.948z"/>
		<path d="M12.282,11.97c0.008,0,0.016-0.007,0.016-0.016s-0.007-0.015-0.016-0.015c-0.009,0-0.015,0.006-0.015,0.015
			S12.273,11.97,12.282,11.97L12.282,11.97z"/>
		<path d="M11.806,11.857c-0.006,0-0.012-0.006-0.012-0.013c0-0.006,0.006-0.012,0.012-0.012c0.007,0,0.013,0.006,0.013,0.012
			C11.818,11.851,11.813,11.857,11.806,11.857L11.806,11.857z"/>
		<path d="M11.036,11.721c-0.012,0.023-0.034,0.041-0.003,0.115c0.005,0.022-0.006,0.033-0.02,0.01
			c-0.023-0.041-0.034-0.103-0.007-0.134C11.032,11.68,11.042,11.708,11.036,11.721L11.036,11.721z"/>
		<path d="M10.971,11.74c-0.008-0.026-0.019-0.052-0.056-0.062c-0.019-0.006-0.022,0.006-0.009,0.011
			c0.014,0.004,0.032,0.012,0.049,0.042S10.974,11.75,10.971,11.74L10.971,11.74z"/>
		<path d="M12.318,11.721c0.011,0.023,0.034,0.041,0.002,0.115c-0.004,0.022,0.006,0.033,0.02,0.01
			c0.024-0.041,0.034-0.103,0.007-0.134C12.321,11.68,12.312,11.708,12.318,11.721L12.318,11.721z"/>
		<path d="M12.383,11.74c0.008-0.026,0.018-0.052,0.055-0.062c0.018-0.006,0.023,0.006,0.009,0.011
			c-0.014,0.004-0.032,0.012-0.048,0.042C12.381,11.76,12.379,11.75,12.383,11.74L12.383,11.74z"/>
		<path fill="none" stroke="#000000" stroke-width="0.1896" stroke-linejoin="round" d="M11.022,12.026
			c0.009,0.067,0.381,0.143,0.654,0.143s0.66-0.073,0.662-0.133"/>
		<path fill="none" stroke="#000000" stroke-width="0.1264" stroke-linejoin="round" d="M13.059,12.996
			c0.273,0,0.666-0.046,0.676-0.114c0.009-0.066,0.067-0.297,0.229-0.388c-0.072-0.052-0.129-0.056-0.22,0.029
			c-0.052-0.053-0.115-0.005-0.158,0.033c0.101,0.038,0.093,0.091,0.048,0.125c-0.046,0.035-0.096,0.044-0.172,0.016
			c-0.059-0.022-0.129-0.061-0.116-0.119c0.009-0.039,0.04-0.089,0.121-0.056C13.4,12.298,13.17,12.38,13.17,12.38
			s-0.059-0.158-0.111-0.158c-0.053,0-0.111,0.158-0.111,0.158s-0.23-0.082-0.297,0.143c0.08-0.034,0.111,0.017,0.12,0.056
			c0.014,0.058-0.046,0.097-0.105,0.119c-0.077,0.028-0.136,0.019-0.182-0.016s-0.054-0.088,0.047-0.125
			c-0.042-0.038-0.105-0.086-0.158-0.033c-0.091-0.085-0.148-0.082-0.22-0.029c0.163,0.091,0.22,0.322,0.23,0.388
			C12.392,12.949,12.786,12.996,13.059,12.996L13.059,12.996z"/>
		<path fill="none" stroke="#000000" stroke-width="0.1896" d="M12.4,12.905c0-0.067,0.377-0.114,0.65-0.114
			c0.273,0,0.656,0.046,0.656,0.114"/>
		<path fill="none" stroke="#000000" stroke-width="0.158" stroke-linejoin="round" d="M12.994,12.806v0.172 M12.888,12.817v0.152
			 M12.782,12.822v0.139 M12.676,12.833v0.119 M12.57,12.845v0.099 M12.463,12.863v0.071 M13.101,12.806v0.172 M13.207,12.817v0.176
			 M13.313,12.83v0.137 M13.419,12.84v0.111 M13.525,12.852v0.092 M13.632,12.863v0.071"/>
		<path fill="none" stroke="#000000" stroke-width="0.1264" stroke-linejoin="round" d="M13.461,12.522
			c-0.043-0.019-0.16,0.092,0.013,0.178 M12.655,12.521c0.043-0.019,0.165,0.094-0.008,0.18 M12.538,12.551
			c0,0-0.105,0.065-0.06,0.122 M13.567,12.554c0,0,0.117,0.062,0.073,0.12"/>
		<path d="M13.053,12.672c0.001,0.008,0.008,0.008,0.009,0c0.006-0.062,0.016-0.229,0.02-0.262c0.004-0.044-0.053-0.042-0.049,0
			C13.037,12.44,13.045,12.61,13.053,12.672L13.053,12.672z"/>
		<path d="M13.269,12.468c-0.048,0-0.115,0.052-0.091,0.169c0.002,0.009,0.016,0.008,0.015-0.002
			c-0.001-0.01,0.001-0.109,0.083-0.144C13.286,12.49,13.285,12.468,13.269,12.468L13.269,12.468z"/>
		<path d="M12.843,12.468c0.048,0,0.115,0.052,0.092,0.169c-0.003,0.009-0.016,0.008-0.016-0.002c0-0.01,0-0.109-0.083-0.144
			C12.826,12.49,12.827,12.468,12.843,12.468L12.843,12.468z"/>
		<path d="M12.926,12.705c-0.007,0-0.012-0.006-0.012-0.013s0.005-0.013,0.012-0.013c0.007,0,0.013,0.006,0.013,0.013
			S12.934,12.705,12.926,12.705L12.926,12.705z"/>
		<path d="M12.861,12.752c-0.006,0-0.01-0.005-0.01-0.011c0-0.006,0.004-0.01,0.01-0.01c0.006,0,0.011,0.004,0.011,0.01
			C12.872,12.748,12.868,12.752,12.861,12.752L12.861,12.752z"/>
		<path d="M12.771,12.763c-0.006,0-0.012-0.005-0.012-0.012s0.005-0.011,0.012-0.011c0.006,0,0.011,0.005,0.011,0.011
			S12.776,12.763,12.771,12.763L12.771,12.763z"/>
		<path d="M12.663,12.778c-0.007,0-0.013-0.005-0.013-0.012s0.006-0.013,0.013-0.013s0.013,0.006,0.013,0.013
			S12.67,12.778,12.663,12.778L12.663,12.778z"/>
		<path d="M12.558,12.795c-0.008,0-0.014-0.006-0.014-0.014c0-0.008,0.006-0.014,0.014-0.014s0.014,0.006,0.014,0.014
			C12.572,12.789,12.566,12.795,12.558,12.795L12.558,12.795z"/>
		<path d="M12.451,12.817c-0.008,0-0.016-0.006-0.016-0.016c0-0.008,0.008-0.014,0.016-0.014c0.008,0,0.016,0.006,0.016,0.014
			C12.466,12.811,12.459,12.817,12.451,12.817L12.451,12.817z"/>
		<path d="M13.25,12.752c0.006,0,0.011-0.005,0.011-0.011c0-0.006-0.004-0.01-0.011-0.01c-0.006,0-0.011,0.004-0.011,0.01
			C13.239,12.748,13.244,12.752,13.25,12.752L13.25,12.752z"/>
		<path d="M13.341,12.763c0.006,0,0.012-0.005,0.012-0.012s-0.005-0.011-0.012-0.011c-0.006,0-0.011,0.005-0.011,0.011
			S13.335,12.763,13.341,12.763L13.341,12.763z"/>
		<path d="M13.448,12.778c0.007,0,0.013-0.005,0.013-0.012s-0.006-0.013-0.013-0.013s-0.013,0.006-0.013,0.013
			S13.441,12.778,13.448,12.778L13.448,12.778z"/>
		<path d="M13.554,12.795c0.008,0,0.014-0.006,0.014-0.014c0-0.008-0.006-0.014-0.014-0.014s-0.014,0.006-0.014,0.014
			C13.54,12.789,13.546,12.795,13.554,12.795L13.554,12.795z"/>
		<path d="M13.661,12.817c0.009,0,0.016-0.006,0.016-0.016c0-0.008-0.006-0.014-0.016-0.014c-0.008,0-0.015,0.006-0.015,0.014
			C13.646,12.811,13.653,12.817,13.661,12.817L13.661,12.817z"/>
		<path d="M13.185,12.705c-0.007,0-0.013-0.006-0.013-0.013s0.005-0.013,0.013-0.013s0.013,0.006,0.013,0.013
			S13.192,12.705,13.185,12.705L13.185,12.705z"/>
		<path d="M12.415,12.568c-0.011,0.023-0.034,0.041-0.003,0.115c0.005,0.022-0.005,0.033-0.019,0.01
			c-0.024-0.041-0.034-0.104-0.007-0.134C12.411,12.527,12.421,12.556,12.415,12.568L12.415,12.568z"/>
		<path d="M12.35,12.587c-0.008-0.026-0.018-0.051-0.055-0.062c-0.019-0.005-0.023,0.006-0.009,0.011s0.032,0.012,0.049,0.042
			C12.351,12.607,12.353,12.598,12.35,12.587L12.35,12.587z"/>
		<path d="M13.697,12.568c0.012,0.023,0.034,0.041,0.002,0.115c-0.004,0.022,0.006,0.033,0.02,0.01
			c0.023-0.041,0.033-0.104,0.007-0.134C13.7,12.527,13.691,12.556,13.697,12.568L13.697,12.568z"/>
		<path d="M13.762,12.587c0.008-0.026,0.019-0.051,0.056-0.062c0.019-0.005,0.022,0.006,0.009,0.011
			c-0.014,0.004-0.032,0.012-0.049,0.042S13.759,12.598,13.762,12.587L13.762,12.587z"/>
		<path fill="none" stroke="#000000" stroke-width="0.1896" stroke-linejoin="round" d="M12.401,12.873
			c0.01,0.067,0.381,0.142,0.654,0.142s0.66-0.073,0.662-0.132"/>
		<polygon points="21.138,12.269 18.453,11.453 15.768,12.269 15.768,12.05 18.453,11.232 21.138,12.05 21.138,12.269 		"/>
		<polygon points="21.138,12.695 18.453,11.878 15.768,12.695 15.768,12.475 18.453,11.658 21.138,12.475 21.138,12.695 		"/>
		<polygon points="21.138,13.12 18.453,12.304 15.768,13.12 15.768,12.9 18.453,12.083 21.138,12.9 21.138,13.12 		"/>
		<path d="M21.292,9.421"/>
		<path d="M22.116,26.252c-0.13,0.061-0.164,0.102-0.164,0.102l-0.016-0.072l0.509-0.622l0.427,0.435l-0.112,0.022
			C22.761,26.118,22.244,26.193,22.116,26.252L22.116,26.252z"/>
		<path d="M18.078,23.697c0.072,0.107,0.022,0.202,0.022,0.202l0.06-0.134l-0.067-0.323l-0.442-0.127l-0.045,0.037
			C17.605,23.353,18.005,23.59,18.078,23.697L18.078,23.697z"/>
		<path d="M16.444,23.323c-0.187,0.06-0.301,0.249-0.301,0.249l-0.036-0.046l0.135-0.345l0.764,0.067l0.015,0.045
			C17.021,23.292,16.745,23.226,16.444,23.323L16.444,23.323z"/>
		<path d="M15.178,23.36c0.111,0.062,0.207,0.213,0.207,0.213l0.018-0.086l-0.157-0.314l-0.705,0.015l-0.03,0.067
			C14.511,23.255,15.067,23.298,15.178,23.36L15.178,23.36z"/>
		<path d="M13.462,23.667c-0.071,0.124-0.023,0.255-0.023,0.255l-0.082-0.143l0.083-0.337l0.442-0.112l0.038,0.045
			C13.919,23.375,13.533,23.543,13.462,23.667L13.462,23.667z"/>
		<path d="M9.318,26.23c0.131,0.043,0.256,0.125,0.256,0.125l0.014-0.065l-0.547-0.584l-0.322,0.33l-0.053,0.098
			C8.666,26.133,9.207,26.193,9.318,26.23L9.318,26.23z"/>
		<path fill="none" stroke="#000000" stroke-width="0.2107" d="M13.851,21.765c-0.109-0.108-0.134-0.108-0.134-0.108
			c-0.253,0.021-0.228,0.021-0.228,0.021c-2.775,0.411-4.989,1.525-5.896,2.953l0.011,0.042c0.245,0.618,0.741,0.974,1.038,1.401
			c0.027,0.04,0.027,0.04,0.027,0.04l0.086-0.093c0.973-1.297,2.852-2.286,5.14-2.665l0.004,0.016
			C13.898,23.373,14.08,21.991,13.851,21.765L13.851,21.765z M6.719,25.217l0.733,0.709l-0.297,0.771
			c1.401-0.044,2.419-0.18,2.419-0.341c0-0.093-0.346-0.16-0.908-0.223l-0.834-1.006C7.481,25.167,7.108,25.197,6.719,25.217
			L6.719,25.217z"/>
		<path fill="#FFFFFF" stroke="#000000" stroke-width="0.2107" d="M14.492,23.257"/>
		<path fill="#FFFFFF" stroke="#000000" stroke-width="0.2107" d="M13.918,23.369"/>
		<path fill="none" stroke="#000000" stroke-width="0.2107" d="M14.519,23.256c-0.009,0-0.018,0-0.027,0.001
			c-0.1-0.729-0.1-0.735-0.1-0.735l-0.385,0.069l-0.088,0.777l-0.02,0.004c-0.315,0.111-0.52,0.282-0.499,0.448
			c0.029,0.235,0.498,0.371,1.046,0.302c0.547-0.069,0.968-0.315,0.939-0.549C15.359,23.363,14.986,23.234,14.519,23.256"/>
		<path fill="#FFFFFF" stroke="#000000" stroke-width="0.2107" d="M14.335,21.815l-0.001-0.028c0-0.019-0.002-0.037-0.003-0.056
			L14.335,21.815L14.335,21.815z"/>
		<path fill="#FFFFFF" stroke="#000000" stroke-width="0.2107" d="M14.334,21.787c0,0.01,0.001,0.018,0.001,0.027"/>
		<path fill="#FFFFFF" stroke="#000000" stroke-width="0.2107" d="M14.334,21.787"/>
		<path fill="#FFFFFF" stroke="#000000" stroke-width="0.2107" d="M13.982,22.592c0.051-0.004,0.307-0.042,0.374-0.058
			L13.982,22.592"/>
		<path fill="none" stroke="#000000" stroke-width="0.2107" d="M23.923,24.671l0.011-0.042c-0.907-1.428-3.12-2.542-5.896-2.954
			c0,0,0.026,0-0.228-0.021c0,0-0.025,0-0.134,0.108c-0.229,0.228-0.126,0.665-0.096,1.029c0.048,0.58,0.048,0.58,0.048,0.58
			l0.004-0.016c2.288,0.378,4.167,1.368,5.14,2.665l0.085,0.092c0,0,0,0,0.027-0.039C23.182,25.646,23.678,25.29,23.923,24.671
			L23.923,24.671z M24.808,25.216c-0.389-0.02-0.761-0.05-1.113-0.09l-0.829,1.007c-0.562,0.063-0.913,0.128-0.913,0.222
			c0,0.16,1.019,0.296,2.42,0.341l-0.298-0.771L24.808,25.216L24.808,25.216z"/>
		<path fill="#FFFFFF" stroke="#000000" stroke-width="0.2107" d="M17.335,23.313"/>
		<path fill="#FFFFFF" stroke="#000000" stroke-width="0.2107" d="M17.036,23.256c-0.012,0-0.023,0-0.035-0.001"/>
		<path fill="#FFFFFF" stroke="#000000" stroke-width="0.2107" d="M17,23.254c-0.007,0-0.013,0-0.019-0.001"/>
		<path fill="none" stroke="#000000" stroke-width="0.2107" d="M17.67,23.386c-0.014-0.005-0.027-0.01-0.041-0.015l-0.016-0.003
			c-0.068-0.777-0.068-0.777-0.068-0.777l0,0l-0.393-0.063l-0.095,0.732l-0.075-0.006c-0.455-0.016-0.814,0.113-0.839,0.318
			c-0.03,0.235,0.391,0.48,0.939,0.549c0.548,0.068,1.016-0.066,1.045-0.301C18.147,23.66,17.962,23.497,17.67,23.386"/>
		<path fill="#FFFFFF" stroke="#000000" stroke-width="0.2107" d="M17.335,23.313"/>
		<path fill="#FFFFFF" stroke="#000000" stroke-width="0.2107" d="M17.196,21.729c-0.001,0.02-0.002,0.038-0.003,0.056l-0.001,0.028
			L17.196,21.729L17.196,21.729z"/>
		<path fill="none" stroke="#000000" stroke-width="0.2107" d="M15.765,21.468c0.518,0,1.005,0.045,1.433,0.124
			c-0.002,0.138-0.002,0.138-0.002,0.138l-0.003,0.056c-0.027,0.533-0.073,1.029-0.136,1.474c0,0-0.849-0.104-1.292-0.104
			l-0.002,0.001c-0.444,0-0.867,0.028-1.251,0.078c0,0-0.145-0.886-0.175-1.421l-0.007-0.049c0,0,0,0,0-0.172
			c0.428-0.079,0.916-0.124,1.434-0.124L15.765,21.468L15.765,21.468z"/>
		<path fill="#231F20" d="M6.016,20.374l0.263,0.439l-0.573,0.945l0.035,0.057l0.525-0.313c0.214-0.128,0.195-0.18,0.134-0.336
			l0.067-0.04l0.434,0.725l-0.067,0.04c-0.108-0.132-0.142-0.17-0.359-0.042l-1.185,0.708c-0.23,0.138-0.196,0.208-0.133,0.335
			l-0.067,0.041l-0.413-0.69c-0.089-0.15-0.34-0.618,0.11-0.886c0.329-0.197,0.544-0.026,0.659,0.063l0.506-0.887
			c0.03-0.059,0.014-0.092-0.001-0.119L6.016,20.374L6.016,20.374z M5.654,21.867c-0.171-0.279-0.296-0.356-0.644-0.147
			c-0.271,0.161-0.333,0.318-0.231,0.49c0.071,0.118,0.103,0.104,0.192,0.065L5.654,21.867L5.654,21.867z"/>
		<path fill="#231F20" d="M4.08,21.189l-0.542-1.335l0.581-0.236l0.024,0.057c-0.39,0.221-0.395,0.414-0.269,0.727
			c0.052,0.127,0.08,0.164,0.205,0.114l0.671-0.272c-0.087-0.224-0.21-0.311-0.583-0.2l-0.024-0.06l0.977-0.397l0.025,0.061
			c-0.351,0.174-0.39,0.328-0.296,0.558l0.7-0.285c0.127-0.051,0.145-0.11,0.083-0.26c-0.092-0.227-0.263-0.432-0.759-0.4
			l-0.027-0.065l0.64-0.151l0.549,1.354l-0.072,0.029c-0.071-0.125-0.109-0.193-0.288-0.121l-1.4,0.569
			c-0.191,0.078-0.157,0.177-0.123,0.287L4.08,21.189L4.08,21.189z"/>
		<path fill="#231F20" d="M5.358,18.95c-0.056-0.141-0.093-0.204-0.293-0.156l-1.44,0.34c-0.177,0.185-0.177,0.227-0.169,0.258
			L3.379,19.41l-0.121-0.513l1.097-1.149l-0.001-0.005l-0.92,0.218c-0.182,0.043-0.276,0.096-0.248,0.298l-0.076,0.018l-0.124-0.522
			l0.076-0.018c0.069,0.168,0.142,0.166,0.288,0.132l1.789-0.422l0.016,0.067l-1.391,1.471l0.002,0.004L4.982,18.7
			c0.218-0.051,0.264-0.116,0.246-0.302l0.075-0.018l0.131,0.552L5.358,18.95L5.358,18.95z"/>
		<path fill="#231F20" d="M3.475,16.294c-0.213,0.065-0.557,0.247-0.53,0.54c0.012,0.129,0.118,0.257,0.32,0.239
			c0.167-0.015,0.231-0.068,0.343-0.29l0.193-0.387c0.045-0.088,0.208-0.294,0.546-0.326c0.274-0.025,0.665,0.1,0.707,0.557
			c0.021,0.236-0.074,0.358-0.066,0.435c0.005,0.053,0.062,0.06,0.113,0.065l0.006,0.072L4.339,17.27l-0.007-0.072
			c0.31-0.079,0.647-0.256,0.618-0.572c-0.028-0.298-0.336-0.282-0.377-0.279c-0.208,0.019-0.272,0.143-0.353,0.314l-0.084,0.176
			c-0.216,0.448-0.483,0.474-0.626,0.486c-0.189,0.018-0.619-0.02-0.663-0.492c-0.018-0.2,0.073-0.325,0.067-0.398
			c-0.005-0.057-0.053-0.064-0.114-0.072l-0.006-0.075l0.674-0.062L3.475,16.294L3.475,16.294z"/>
		<path fill="#231F20" d="M3.48,14.792c-0.22,0.039-0.583,0.178-0.591,0.472c-0.004,0.131,0.085,0.27,0.289,0.276
			c0.169,0.005,0.239-0.041,0.376-0.247l0.238-0.36c0.056-0.083,0.242-0.268,0.582-0.258c0.274,0.007,0.648,0.179,0.635,0.638
			c-0.007,0.237-0.116,0.346-0.118,0.424c-0.002,0.052,0.054,0.065,0.104,0.078l-0.001,0.072l-0.771-0.022l0.001-0.073
			c0.317-0.041,0.673-0.175,0.683-0.493c0.009-0.299-0.3-0.32-0.341-0.322c-0.208-0.006-0.287,0.109-0.388,0.269l-0.105,0.165
			c-0.268,0.42-0.537,0.412-0.679,0.407c-0.191-0.005-0.613-0.095-0.6-0.569c0.006-0.199,0.112-0.313,0.114-0.386
			c0.001-0.057-0.045-0.071-0.104-0.085l0.002-0.075l0.677,0.019L3.48,14.792L3.48,14.792z"/>
		<path fill="#231F20" d="M2.878,14.274l0.232-1.422l0.619,0.101l-0.01,0.062C3.273,13,3.168,13.163,3.113,13.495
			c-0.022,0.135-0.017,0.182,0.115,0.204l0.715,0.117c0.042-0.236-0.018-0.375-0.394-0.475l0.011-0.064l1.041,0.171l-0.011,0.063
			c-0.39-0.033-0.503,0.078-0.543,0.321l0.746,0.123c0.135,0.022,0.18-0.019,0.206-0.178C5.04,13.535,5,13.271,4.561,13.039
			l0.011-0.069l0.625,0.204L4.96,14.615l-0.077-0.013c0.004-0.143,0.008-0.221-0.183-0.252l-1.491-0.244
			c-0.203-0.034-0.226,0.069-0.254,0.181L2.878,14.274L2.878,14.274z"/>
		<path fill="#231F20" d="M5.658,11.667l-0.439,1.375l-0.074-0.024c0.021-0.14,0.036-0.214-0.146-0.273l-1.439-0.46
			c-0.197-0.062-0.233,0.034-0.277,0.138L3.208,12.4l0.265-0.831l0.074,0.024c-0.044,0.169-0.065,0.244,0.197,0.328l1.403,0.449
			c0.143,0.046,0.183,0.001,0.234-0.158c0.115-0.36-0.089-0.572-0.39-0.789l0.021-0.068L5.658,11.667L5.658,11.667z"/>
		<path fill="#231F20" d="M6.444,10.037L6.083,10.76l-0.069-0.035c0.055-0.146,0.072-0.187-0.02-0.232
			c-0.075-0.038-0.318-0.07-0.423-0.083l-0.25,0.503c0.169,0.163,0.267,0.256,0.311,0.278c0.106,0.052,0.168-0.05,0.211-0.124
			l0.07,0.035l-0.226,0.454l-0.07-0.036c0.038-0.131-0.042-0.21-0.218-0.381L4.115,9.88l0.031-0.063l1.718,0.235
			c0.349,0.048,0.462,0.06,0.51-0.05L6.444,10.037L6.444,10.037z M5.445,10.389l-0.792-0.113l0.574,0.549L5.445,10.389L5.445,10.389
			z"/>
		<path fill="#231F20" d="M4.743,8.787l0.832-1.178l0.512,0.362L6.051,8.022C5.656,7.813,5.49,7.914,5.296,8.188
			C5.217,8.3,5.201,8.345,5.31,8.422l0.591,0.418c0.141-0.195,0.148-0.346-0.146-0.6l0.038-0.053l0.861,0.609L6.617,8.851
			C6.281,8.649,6.13,8.7,5.988,8.901l0.617,0.437c0.113,0.079,0.17,0.062,0.264-0.07C7.01,9.067,7.09,8.812,6.797,8.412l0.04-0.057
			l0.472,0.456l-0.843,1.193L6.402,9.959c0.067-0.126,0.104-0.195-0.054-0.308L5.114,8.78C4.946,8.661,4.881,8.743,4.806,8.831
			L4.743,8.787L4.743,8.787z"/>
		<path fill="#231F20" d="M8.587,7.452L8.231,7.82L7.169,7.514L7.123,7.563l0.441,0.424c0.179,0.173,0.224,0.14,0.359,0.041
			l0.056,0.055L7.393,8.69L7.336,8.636c0.1-0.14,0.128-0.183-0.054-0.357L6.289,7.321C6.096,7.135,6.037,7.187,5.93,7.28
			L5.874,7.226l0.558-0.579c0.121-0.126,0.507-0.49,0.884-0.126C7.592,6.788,7.483,7.04,7.428,7.174L8.417,7.43
			C8.481,7.444,8.51,7.418,8.531,7.398L8.587,7.452L8.587,7.452z M7.05,7.494c0.225-0.238,0.266-0.379-0.026-0.66
			C6.797,6.615,6.629,6.594,6.49,6.739C6.395,6.838,6.417,6.865,6.478,6.941L7.05,7.494L7.05,7.494z"/>
		<path fill="#231F20" d="M8.991,7.028C9.077,6.937,9.08,6.933,9.085,6.91C9.094,6.869,9.1,6.816,9,6.672L8.217,5.536
			C8.069,5.321,8,5.356,7.882,5.419L7.837,5.355l0.662-0.457C8.664,4.785,9.064,4.566,9.363,5c0.062,0.09,0.166,0.288,0.081,0.517
			C9.376,5.7,9.273,5.775,9.004,5.965l0.329,0.478c0.144,0.208,0.186,0.186,0.344,0.112l0.044,0.063L9.035,7.092L8.991,7.028
			L8.991,7.028z M8.941,5.875C9.194,5.708,9.235,5.57,9.015,5.251C8.813,4.958,8.672,4.912,8.504,5.028
			c-0.07,0.048-0.074,0.1-0.037,0.159L8.941,5.875L8.941,5.875z"/>
		<path fill="#231F20" d="M11.392,4.523c0.286,0.59,0.148,1.159-0.312,1.382C10.619,6.129,10.086,5.884,9.8,5.294
			c-0.297-0.613-0.122-1.173,0.312-1.383C10.546,3.702,11.095,3.912,11.392,4.523L11.392,4.523z M10.198,5.102
			C10.316,5.346,10.65,6,11.034,5.814c0.385-0.187,0.078-0.854-0.04-1.098c-0.199-0.411-0.522-0.864-0.837-0.712
			C9.843,4.157,10,4.691,10.198,5.102L10.198,5.102z"/>
		<path fill="#231F20" d="M13.276,5.042l-1.382,0.416l-0.022-0.075c0.127-0.062,0.196-0.092,0.142-0.274l-0.435-1.447
			c-0.059-0.197-0.159-0.173-0.269-0.15l-0.022-0.075l0.835-0.251l0.022,0.075c-0.165,0.059-0.238,0.085-0.159,0.348l0.424,1.411
			c0.042,0.143,0.103,0.152,0.263,0.104c0.36-0.108,0.42-0.397,0.429-0.768l0.069-0.021L13.276,5.042L13.276,5.042z"/>
		<path fill="#231F20" d="M14.808,2.751c-0.045,0.016-0.115,0.038-0.151,0.144l-0.338,1.027l0.079,0.568
			c0.036,0.257,0.091,0.255,0.268,0.253l0.011,0.077l-0.858,0.12l-0.01-0.077c0.167-0.045,0.226-0.061,0.19-0.317l-0.064-0.454
			L13.338,3.13c-0.016-0.026-0.094-0.151-0.222-0.142l-0.011-0.077l0.828-0.116l0.011,0.078c-0.17,0.024-0.197,0.046-0.185,0.133
			c0.006,0.046,0.057,0.118,0.083,0.165l0.397,0.676l0.194-0.61c0.013-0.036,0.068-0.217,0.056-0.301
			c-0.017-0.12-0.109-0.114-0.227-0.107L14.253,2.75l0.544-0.076L14.808,2.751L14.808,2.751z"/>
		<path fill="#231F20" d="M16.355,4.783l-0.892-0.012l0.001-0.078c0.182-0.016,0.243-0.021,0.246-0.284l0.021-1.646
			c-0.174,0.01-0.432,0.022-0.488,0.521L15.17,3.284l0.016-0.627l1.499,0.019l-0.003,0.628l-0.073-0.001
			c-0.043-0.5-0.3-0.52-0.472-0.534l-0.021,1.646c-0.003,0.266,0.057,0.272,0.241,0.29L16.355,4.783L16.355,4.783z"/>
		<path fill="#231F20" d="M17.034,2.704l1.422,0.228L18.357,3.55l-0.062-0.009c0.013-0.447-0.149-0.552-0.482-0.605
			c-0.135-0.021-0.182-0.017-0.203,0.116l-0.114,0.715c0.236,0.041,0.375-0.019,0.472-0.395l0.064,0.01l-0.166,1.041l-0.064-0.01
			c0.032-0.39-0.079-0.502-0.323-0.542L17.36,4.617c-0.021,0.136,0.02,0.18,0.18,0.206c0.242,0.039,0.506-0.001,0.735-0.441
			l0.069,0.011l-0.201,0.625l-1.442-0.231l0.012-0.077c0.143,0.004,0.221,0.007,0.252-0.184l0.238-1.491
			c0.033-0.204-0.07-0.226-0.182-0.254L17.034,2.704L17.034,2.704z"/>
		<path fill="#231F20" d="M19.983,5.168c-0.253,0.191-0.499,0.318-0.803,0.22c-0.554-0.178-0.696-0.763-0.517-1.318
			c0.194-0.604,0.686-0.956,1.186-0.795c0.213,0.069,0.35,0.273,0.412,0.294c0.064,0.021,0.105-0.035,0.154-0.102l0.063,0.021
			l-0.224,0.695l-0.06-0.019c0-0.286-0.087-0.698-0.358-0.785c-0.347-0.112-0.586,0.312-0.748,0.814
			c-0.058,0.178-0.135,0.468-0.108,0.687c0.031,0.246,0.204,0.352,0.278,0.375c0.186,0.06,0.392,0.028,0.678-0.185L19.983,5.168
			L19.983,5.168z"/>
		<path fill="#231F20" d="M21.548,6.403l-0.754-0.39l0.036-0.069c0.126,0.044,0.214,0.075,0.301-0.094l0.33-0.638l-0.535-0.276
			l-0.329,0.638c-0.088,0.169-0.011,0.223,0.098,0.3l-0.036,0.07l-0.748-0.387l0.036-0.07c0.128,0.042,0.206,0.064,0.291-0.099
			l0.694-1.342c0.093-0.18,0-0.235-0.087-0.294l0.036-0.069l0.748,0.386l-0.037,0.069c-0.102-0.042-0.207-0.089-0.301,0.094
			l-0.297,0.574l0.535,0.276l0.297-0.574c0.095-0.183-0.004-0.241-0.097-0.299l0.036-0.07l0.754,0.39l-0.037,0.069
			c-0.1-0.042-0.203-0.084-0.297,0.096L21.49,6.036c-0.086,0.167-0.014,0.218,0.094,0.298L21.548,6.403L21.548,6.403z"/>
		<path fill="#231F20" d="M21.589,6.344c0.133,0.072,0.202,0.097,0.326-0.068L22.8,5.09c0.017-0.256-0.009-0.288-0.035-0.307
			l0.046-0.062l0.422,0.315L23.13,6.622l0.004,0.003L23.7,5.868c0.112-0.151,0.15-0.25-0.001-0.387l0.047-0.062l0.43,0.321
			l-0.047,0.062c-0.161-0.085-0.216-0.037-0.306,0.083l-1.1,1.473l-0.056-0.042l0.122-2.02l-0.003-0.003l-0.748,1
			c-0.134,0.181-0.128,0.259,0.005,0.39l-0.046,0.062l-0.454-0.338L21.589,6.344L21.589,6.344z"/>
		<path fill="#231F20" d="M23.554,8.076l-0.632-0.604l0.054-0.057c0.108,0.082,0.188,0.14,0.321,0l1.044-1.093
			c0.142-0.149,0.062-0.234-0.015-0.321l0.054-0.057l0.632,0.604l-0.054,0.056C24.87,6.53,24.78,6.449,24.634,6.603L23.59,7.696
			c-0.138,0.144-0.072,0.22,0.019,0.324L23.554,8.076L23.554,8.076z"/>
		<path fill="#231F20" d="M24.958,9.12c-0.316,0.023-0.591-0.003-0.794-0.25c-0.369-0.451-0.173-1.018,0.279-1.388
			c0.49-0.401,1.094-0.431,1.427-0.026c0.143,0.174,0.146,0.42,0.187,0.47c0.043,0.052,0.108,0.028,0.184-0.002l0.043,0.052
			l-0.565,0.463l-0.04-0.049c0.154-0.24,0.304-0.633,0.124-0.854c-0.232-0.282-0.663-0.054-1.071,0.28
			c-0.145,0.119-0.367,0.32-0.463,0.518c-0.108,0.224-0.019,0.407,0.03,0.466c0.124,0.151,0.315,0.236,0.671,0.212L24.958,9.12
			L24.958,9.12z"/>
		<path fill="#231F20" d="M25.424,10.702l-0.427-0.762L25.065,9.9c0.08,0.11,0.138,0.189,0.307,0.095l1.318-0.739
			c0.18-0.1,0.128-0.206,0.08-0.312l0.068-0.038l0.426,0.763l-0.068,0.038c-0.063-0.099-0.124-0.203-0.309-0.099l-1.318,0.738
			c-0.175,0.097-0.134,0.189-0.078,0.315L25.424,10.702L25.424,10.702z"/>
		<path fill="#231F20" d="M25.53,10.68c0.077,0.13,0.123,0.187,0.314,0.109l1.37-0.559c0.146-0.21,0.14-0.251,0.128-0.282
			l0.072-0.029l0.199,0.487l-0.907,1.306l0.002,0.005l0.875-0.357c0.174-0.071,0.257-0.138,0.198-0.332l0.072-0.03l0.203,0.498
			l-0.072,0.029c-0.094-0.156-0.167-0.143-0.306-0.086l-1.703,0.695l-0.026-0.065l1.147-1.668l-0.002-0.004l-1.156,0.472
			c-0.208,0.084-0.243,0.156-0.197,0.336l-0.072,0.03l-0.214-0.525L25.53,10.68L25.53,10.68z"/>
		<path fill="#231F20" d="M27.801,13.014c0.201-0.097,0.513-0.33,0.441-0.615c-0.032-0.126-0.156-0.237-0.353-0.187
			c-0.165,0.041-0.22,0.104-0.295,0.339l-0.132,0.412c-0.031,0.095-0.16,0.323-0.49,0.407c-0.267,0.067-0.672,0.004-0.785-0.442
			c-0.057-0.23,0.018-0.364-0.001-0.44c-0.013-0.05-0.07-0.049-0.121-0.046l-0.018-0.071l0.748-0.188l0.018,0.07
			c-0.294,0.125-0.601,0.353-0.523,0.66c0.073,0.29,0.375,0.227,0.415,0.217c0.203-0.051,0.247-0.183,0.301-0.364l0.056-0.187
			c0.144-0.477,0.404-0.542,0.543-0.577c0.185-0.047,0.616-0.075,0.731,0.385c0.049,0.195-0.022,0.333-0.005,0.403
			c0.014,0.056,0.063,0.056,0.123,0.055l0.019,0.072l-0.657,0.165L27.801,13.014L27.801,13.014z"/>
		<path fill="#231F20" d="M26.563,14.817l-0.1-0.886l0.078-0.009c0.039,0.179,0.051,0.238,0.312,0.209l1.636-0.184
			c-0.032-0.173-0.077-0.426-0.579-0.42l-0.008-0.072l0.624-0.062l0.168,1.49l-0.623,0.075l-0.008-0.072
			c0.491-0.105,0.478-0.363,0.471-0.536l-1.635,0.184c-0.263,0.029-0.263,0.09-0.258,0.275L26.563,14.817L26.563,14.817z"/>
		<path fill="#231F20" d="M26.58,16.066l0.003-0.875h0.078c0.015,0.135,0.027,0.233,0.221,0.233l1.511,0.005
			c0.207,0,0.213-0.116,0.223-0.232h0.078l-0.002,0.875h-0.078c-0.006-0.117-0.009-0.237-0.221-0.238l-1.511-0.005
			c-0.2,0-0.209,0.099-0.222,0.237H26.58L26.58,16.066z"/>
		<path fill="#231F20" d="M26.453,17.326l0.104-0.886l0.078,0.009c-0.003,0.184-0.003,0.244,0.256,0.274l1.634,0.194
			c0.008-0.176,0.023-0.433-0.467-0.541l0.008-0.072l0.622,0.081l-0.175,1.489l-0.624-0.069l0.009-0.072
			c0.501,0.01,0.547-0.244,0.58-0.414l-1.634-0.193c-0.264-0.032-0.277,0.027-0.313,0.209L26.453,17.326L26.453,17.326z"/>
		<path fill="#231F20" d="M27.918,19.859c0.012-0.139-0.005-0.203-0.204-0.258l-0.959-0.267c-0.178-0.05-0.436-0.157-0.543-0.296
			c-0.128-0.166-0.127-0.391-0.087-0.535c0.029-0.106,0.11-0.328,0.325-0.436c0.143-0.072,0.266-0.105,0.59-0.015l1.004,0.279
			c0.253,0.071,0.276,0.009,0.333-0.121l0.075,0.021l-0.226,0.814l-0.076-0.021c0.035-0.162,0.053-0.236-0.212-0.311l-1.005-0.278
			c-0.171-0.048-0.586-0.164-0.683,0.184c-0.118,0.423,0.341,0.556,0.534,0.609l0.917,0.256c0.184,0.051,0.294,0.05,0.364-0.154
			l0.075,0.021l-0.147,0.529L27.918,19.859L27.918,19.859z"/>
		<path fill="#231F20" d="M25.442,20.452l0.367-0.812l0.071,0.033c-0.058,0.173-0.077,0.23,0.162,0.338l1.499,0.678
			c0.061-0.165,0.153-0.404-0.282-0.656l0.029-0.066l0.569,0.266l-0.617,1.365l-0.574-0.254l0.029-0.066
			c0.476,0.161,0.596-0.067,0.678-0.219l-1.499-0.678c-0.242-0.109-0.272-0.057-0.363,0.104L25.442,20.452L25.442,20.452z"/>
		<path fill="#231F20" d="M27.074,21.907l-0.779,1.213l-0.528-0.339l0.034-0.052c0.405,0.19,0.566,0.083,0.748-0.2
			c0.074-0.116,0.088-0.161-0.024-0.233l-0.609-0.391c-0.132,0.201-0.133,0.351,0.172,0.592l-0.036,0.055l-0.887-0.569l0.035-0.056
			c0.345,0.187,0.492,0.129,0.625-0.079l-0.635-0.409c-0.116-0.074-0.173-0.054-0.261,0.083c-0.132,0.207-0.201,0.464,0.109,0.851
			l-0.038,0.059l-0.492-0.435l0.79-1.229l0.065,0.042c-0.061,0.129-0.095,0.2,0.067,0.305l1.271,0.816
			c0.173,0.111,0.235,0.026,0.305-0.065L27.074,21.907L27.074,21.907z"/>
		<path d="M11.9,26.743c0.209,0.073,0.307,0.314,0.229,0.542c-0.081,0.233-0.305,0.357-0.515,0.285
			c-0.202-0.07-0.31-0.31-0.229-0.542C11.463,26.8,11.698,26.673,11.9,26.743L11.9,26.743z"/>
		<path d="M14.019,28.78l-1.038-0.18l0.012-0.073c0.321,0.058,0.35-0.061,0.382-0.251l0.204-1.184
			c0.013-0.077,0.037-0.211-0.071-0.23c-0.04-0.007-0.14,0.015-0.241,0.038l0.014-0.08l0.756-0.215l0.047,0.008l-0.302,1.753
			c-0.035,0.206-0.024,0.293,0.25,0.341L14.019,28.78L14.019,28.78z"/>
		<path d="M15.735,27.202c-0.014,0.264-0.247,0.365-0.404,0.413c0.232,0.172,0.401,0.399,0.386,0.689
			c-0.021,0.39-0.291,0.62-0.692,0.599c-0.303-0.016-0.577-0.212-0.559-0.555c0.017-0.339,0.257-0.449,0.448-0.505
			c-0.203-0.142-0.373-0.341-0.36-0.6c0.016-0.29,0.217-0.546,0.666-0.522C15.646,26.743,15.745,27.024,15.735,27.202L15.735,27.202
			z M15.267,27.556c0.07-0.093,0.124-0.166,0.134-0.352c0.009-0.16-0.022-0.383-0.23-0.394c-0.137-0.007-0.236,0.112-0.243,0.24
			C14.913,27.34,15.239,27.539,15.267,27.556L15.267,27.556z M15.05,28.804c0.25,0.013,0.265-0.271,0.269-0.351
			c0.013-0.256-0.163-0.399-0.346-0.55c-0.092,0.136-0.156,0.229-0.167,0.457C14.794,28.584,14.868,28.794,15.05,28.804
			L15.05,28.804z"/>
		<path d="M17.162,28.82l-1.167,0.076l-0.004-0.072c0.418-0.568,0.73-1.001,0.707-1.369c-0.006-0.087-0.071-0.396-0.359-0.378
			c-0.065,0.005-0.238,0.035-0.324,0.304l-0.079,0.004c0.044-0.181,0.18-0.649,0.575-0.676c0.173-0.011,0.525,0.076,0.557,0.549
			c0.006,0.09,0.022,0.327-0.275,0.687l-0.422,0.51l0.423-0.028c0.297-0.02,0.32-0.052,0.385-0.27l0.067-0.004L17.162,28.82
			L17.162,28.82z"/>
		<path d="M18.697,27.757l0.064,0.34l-0.174,0.033l0.083,0.442l-0.4,0.074l-0.083-0.441l-0.685,0.128l-0.065-0.347
			c0.164-0.481,0.432-1.068,0.617-1.484l0.221-0.042l0.249,1.328L18.697,27.757L18.697,27.757z M17.959,26.962h-0.005l-0.403,1.009
			l0.577-0.108L17.959,26.962L17.959,26.962z"/>
		<path d="M19.782,26.688c0.208-0.075,0.437,0.051,0.519,0.278c0.084,0.231-0.013,0.469-0.221,0.543
			c-0.201,0.073-0.434-0.044-0.518-0.276C19.479,27.008,19.581,26.761,19.782,26.688L19.782,26.688z"/>
		<path d="M9.082,24.75l-0.193,0.191l-0.015-0.014c0.034-0.037,0.043-0.048,0.034-0.058C8.9,24.862,8.889,24.86,8.869,24.858
			L8.635,24.83l-0.001,0.031l0.111,0.112c0.034,0.035,0.057,0.017,0.091-0.009l0.014,0.014L8.657,25.17l-0.014-0.015
			c0.028-0.035,0.044-0.055,0.01-0.09l-0.275-0.278c-0.037-0.038-0.062-0.016-0.09,0.008l-0.014-0.014l0.194-0.192l0.014,0.015
			c-0.029,0.033-0.047,0.054,0.001,0.104l0.122,0.123l0.001-0.249c0-0.031,0-0.041-0.011-0.052
			c-0.013-0.013-0.023-0.009-0.067,0.029l-0.014-0.015l0.166-0.164l0.014,0.014c-0.057,0.063-0.057,0.119-0.056,0.312l0.39,0.045
			c0.019,0.001,0.028-0.005,0.041-0.016L9.082,24.75L9.082,24.75z"/>
		<path d="M9.076,24.732c0.034-0.036,0.048-0.054,0.014-0.096L8.848,24.34c-0.07-0.014-0.082-0.008-0.09-0.001l-0.013-0.016
			l0.132-0.108l0.435,0.089l0.002-0.002l-0.156-0.188c-0.031-0.037-0.055-0.053-0.109-0.014l-0.012-0.016l0.134-0.11l0.013,0.016
			c-0.041,0.043-0.032,0.06-0.008,0.09l0.302,0.368L9.46,24.461l-0.555-0.11l-0.002,0.001l0.205,0.25
			c0.037,0.044,0.06,0.045,0.11,0.013l0.013,0.016l-0.142,0.115L9.076,24.732L9.076,24.732z"/>
		<path d="M9.861,23.829c0.097,0.139,0.063,0.304-0.073,0.397c-0.136,0.094-0.301,0.066-0.398-0.074
			c-0.1-0.145-0.055-0.31,0.073-0.397C9.591,23.667,9.761,23.683,9.861,23.829L9.861,23.829z M9.508,24.072
			c0.04,0.058,0.151,0.211,0.266,0.133c0.113-0.078,0.009-0.237-0.03-0.295c-0.067-0.097-0.172-0.197-0.265-0.133
			C9.385,23.841,9.441,23.975,9.508,24.072L9.508,24.072z"/>
		<path d="M10.458,23.19c-0.023,0.016-0.029,0.042-0.023,0.073l0.099,0.502l-0.019,0.011l-0.304-0.262l-0.005,0.002l0.058,0.401
			l-0.02,0.011l-0.389-0.339c-0.031-0.027-0.042-0.03-0.074-0.018l-0.01-0.018l0.207-0.117l0.01,0.018
			c-0.024,0.017-0.043,0.029-0.029,0.055c0.005,0.008,0.011,0.014,0.019,0.02l0.227,0.207l0.001-0.001l-0.039-0.26l-0.062-0.054
			c-0.018-0.01-0.03-0.014-0.065,0.004l-0.01-0.018l0.22-0.125l0.01,0.019c-0.029,0.019-0.049,0.031-0.036,0.055
			c0.005,0.009,0.02,0.021,0.032,0.033l0.208,0.191l0.001-0.001l-0.057-0.283c-0.001-0.008-0.003-0.018-0.012-0.033
			c-0.017-0.029-0.042-0.015-0.066-0.003l-0.01-0.018l0.128-0.072L10.458,23.19L10.458,23.19z"/>
		<path d="M11.159,23.445l-0.422,0.198l-0.009-0.018c0.039-0.024,0.06-0.037,0.039-0.082l-0.166-0.354
			c-0.023-0.047-0.054-0.035-0.087-0.022l-0.009-0.018l0.255-0.12l0.008,0.019c-0.05,0.026-0.072,0.038-0.042,0.102l0.162,0.346
			c0.017,0.035,0.035,0.033,0.084,0.01c0.11-0.052,0.123-0.132,0.118-0.231l0.021-0.01L11.159,23.445L11.159,23.445z"/>
		<path d="M11.012,22.912l0.432-0.175l0.061,0.151l-0.019,0.008c-0.06-0.1-0.121-0.097-0.222-0.056
			c-0.042,0.017-0.054,0.025-0.041,0.057l0.069,0.174c0.073-0.029,0.103-0.063,0.077-0.161l0.02-0.007l0.103,0.253l-0.02,0.008
			c-0.047-0.09-0.094-0.098-0.168-0.067l0.073,0.181c0.014,0.033,0.031,0.036,0.08,0.017c0.074-0.03,0.142-0.08,0.144-0.212
			l0.021-0.008l0.033,0.168l-0.438,0.177l-0.008-0.019c0.041-0.021,0.063-0.033,0.045-0.08l-0.146-0.362
			c-0.02-0.049-0.052-0.039-0.087-0.027L11.012,22.912L11.012,22.912z"/>
		<path d="M11.7,23.201c0.049-0.017,0.056-0.043,0.046-0.073l-0.128-0.376c-0.016-0.047-0.05-0.037-0.081-0.03l-0.006-0.02
			l0.233-0.079c0.214-0.073,0.329,0.037,0.369,0.155c0.048,0.14,0.006,0.288-0.184,0.36l-0.242,0.082L11.7,23.201L11.7,23.201z
			 M11.87,23.085c0.011,0.031,0.022,0.042,0.059,0.029c0.085-0.029,0.136-0.101,0.074-0.284c-0.023-0.069-0.097-0.226-0.229-0.181
			c-0.049,0.016-0.041,0.035-0.035,0.051L11.87,23.085L11.87,23.085z"/>
		<path d="M12.771,22.668c-0.046,0.019-0.064,0.027-0.047,0.09l0.028,0.1c-0.03,0.036-0.129,0.088-0.197,0.106
			c-0.195,0.055-0.32-0.059-0.358-0.194c-0.043-0.153,0.029-0.309,0.198-0.356c0.07-0.02,0.141,0.002,0.161-0.003
			s0.023-0.024,0.026-0.045l0.021-0.006l0.05,0.182l-0.019,0.005c-0.046-0.06-0.137-0.133-0.226-0.108
			c-0.113,0.031-0.111,0.159-0.074,0.293c0.016,0.055,0.075,0.248,0.222,0.207c0.069-0.019,0.074-0.046,0.065-0.079l-0.023-0.083
			c-0.014-0.049-0.04-0.044-0.094-0.032l-0.005-0.02l0.266-0.074L12.771,22.668L12.771,22.668z"/>
		<path d="M12.732,22.334l0.455-0.102l0.036,0.158l-0.021,0.004c-0.042-0.108-0.103-0.115-0.209-0.091
			c-0.044,0.01-0.057,0.016-0.049,0.049l0.041,0.183c0.076-0.016,0.112-0.046,0.102-0.146l0.021-0.004l0.06,0.266l-0.021,0.004
			c-0.031-0.096-0.077-0.111-0.154-0.093l0.042,0.191c0.008,0.035,0.025,0.041,0.076,0.03c0.077-0.018,0.153-0.057,0.176-0.187
			l0.022-0.004l0.005,0.17l-0.461,0.104l-0.004-0.02c0.043-0.015,0.068-0.023,0.057-0.071l-0.085-0.381
			c-0.012-0.052-0.045-0.046-0.083-0.041L12.732,22.334L12.732,22.334z"/>
		<path d="M15.433,22.521l-0.262,0.01l0-0.021c0.05-0.006,0.064-0.008,0.063-0.034c-0.001-0.022-0.029-0.081-0.041-0.105
			l-0.183,0.006c-0.02,0.06-0.031,0.094-0.031,0.106c0.001,0.03,0.041,0.031,0.068,0.032l0.001,0.021l-0.164,0.006l-0.001-0.02
			c0.043-0.008,0.054-0.037,0.076-0.098l0.162-0.449l0.023-0.001l0.196,0.417c0.04,0.085,0.054,0.112,0.093,0.109L15.433,22.521
			L15.433,22.521z M15.179,22.339l-0.089-0.193l-0.069,0.198L15.179,22.339L15.179,22.339z"/>
		<path d="M15.467,22.499c0.048-0.006,0.071-0.011,0.071-0.064l0.002-0.382c-0.045-0.056-0.058-0.059-0.068-0.059v-0.02l0.17,0.001
			l0.279,0.346h0.001l0.001-0.245c0-0.049-0.009-0.074-0.075-0.08l0-0.021l0.174,0.001l0,0.021
			c-0.058,0.007-0.062,0.025-0.063,0.064l-0.002,0.476h-0.023l-0.357-0.44h-0.002l-0.002,0.323c0,0.058,0.017,0.073,0.077,0.08
			v0.021l-0.184-0.001V22.499L15.467,22.499z"/>
		<path d="M16.044,22.503c0.051,0.002,0.068-0.021,0.07-0.049l0.02-0.398c0.003-0.049-0.032-0.053-0.064-0.058l0.001-0.02
			l0.246,0.012c0.226,0.012,0.292,0.156,0.286,0.28c-0.007,0.148-0.101,0.27-0.305,0.266l-0.255-0.013L16.044,22.503L16.044,22.503z
			 M16.246,22.458c-0.002,0.032,0.004,0.046,0.043,0.048c0.09,0.005,0.164-0.042,0.174-0.236c0.004-0.073-0.006-0.246-0.145-0.252
			c-0.051-0.003-0.051,0.017-0.052,0.035L16.246,22.458L16.246,22.458z"/>
		<path d="M18.034,22.734l-0.258-0.048l0.004-0.019c0.053,0.005,0.071,0.006,0.083-0.061l0.078-0.418
			c-0.051-0.006-0.127-0.017-0.164,0.108l-0.021-0.003l0.032-0.16l0.434,0.08l-0.028,0.16l-0.021-0.003
			c0.01-0.13-0.064-0.148-0.114-0.16l-0.078,0.419c-0.012,0.068,0.005,0.072,0.058,0.086L18.034,22.734L18.034,22.734z"/>
		<path d="M18.685,22.877l-0.244-0.056l0.005-0.02c0.039,0.004,0.066,0.007,0.077-0.041l0.041-0.182l-0.172-0.039l-0.042,0.181
			c-0.011,0.047,0.015,0.057,0.052,0.07l-0.004,0.02l-0.242-0.055l0.004-0.021c0.04,0.004,0.063,0.005,0.074-0.041l0.087-0.382
			c0.011-0.051-0.019-0.06-0.048-0.07l0.004-0.02l0.241,0.055l-0.004,0.019c-0.032-0.004-0.065-0.01-0.077,0.042L18.4,22.503
			l0.172,0.04l0.038-0.164c0.012-0.052-0.021-0.061-0.052-0.07l0.004-0.02l0.244,0.055l-0.005,0.021
			c-0.031-0.005-0.064-0.01-0.076,0.041l-0.086,0.382c-0.011,0.047,0.013,0.056,0.05,0.07L18.685,22.877L18.685,22.877z"/>
		<path d="M19.292,22.765c-0.045,0.163-0.182,0.246-0.328,0.206c-0.146-0.041-0.22-0.183-0.174-0.346
			c0.047-0.17,0.191-0.244,0.328-0.206C19.255,22.456,19.339,22.594,19.292,22.765L19.292,22.765z M18.916,22.66
			c-0.019,0.068-0.065,0.251,0.056,0.286c0.121,0.034,0.176-0.148,0.195-0.216c0.032-0.113,0.043-0.258-0.056-0.285
			C19.011,22.416,18.947,22.546,18.916,22.66L18.916,22.66z"/>
		<path d="M19.737,23.195l-0.144-0.047l-0.065-0.288l-0.02-0.006l-0.049,0.15c-0.02,0.062-0.005,0.069,0.039,0.091l-0.006,0.019
			l-0.236-0.077l0.006-0.02c0.05,0.01,0.064,0.012,0.084-0.051l0.112-0.339c0.021-0.066,0-0.074-0.039-0.091l0.007-0.019
			l0.225,0.074c0.049,0.016,0.195,0.07,0.153,0.2c-0.031,0.094-0.111,0.094-0.153,0.095l0.068,0.265
			c0.006,0.018,0.016,0.021,0.024,0.024L19.737,23.195L19.737,23.195z M19.518,22.83c0.091,0.029,0.134,0.024,0.167-0.076
			c0.025-0.078,0.008-0.12-0.048-0.138c-0.039-0.013-0.043-0.005-0.055,0.018L19.518,22.83L19.518,22.83z"/>
		<path d="M20.343,23.138c-0.061,0.158-0.205,0.229-0.346,0.174c-0.141-0.054-0.2-0.203-0.139-0.362
			c0.063-0.164,0.214-0.225,0.346-0.174C20.336,22.827,20.406,22.973,20.343,23.138L20.343,23.138z M19.979,22.997
			c-0.025,0.067-0.09,0.245,0.027,0.291c0.118,0.045,0.19-0.131,0.215-0.197c0.042-0.11,0.068-0.252-0.028-0.29
			C20.098,22.764,20.021,22.887,19.979,22.997L19.979,22.997z"/>
		<path d="M20.948,23.13c-0.04-0.011-0.059-0.01-0.081,0.04l-0.105,0.234c-0.019,0.043-0.058,0.104-0.101,0.125
			c-0.051,0.024-0.117,0.012-0.156-0.006c-0.03-0.014-0.09-0.046-0.116-0.107c-0.016-0.041-0.022-0.075,0.014-0.154l0.11-0.246
			c0.028-0.062,0.011-0.071-0.025-0.092l0.009-0.019l0.226,0.102l-0.008,0.019C20.67,23.008,20.649,23,20.62,23.064l-0.111,0.246
			c-0.019,0.042-0.065,0.143,0.032,0.187c0.118,0.053,0.17-0.06,0.191-0.107l0.101-0.224c0.02-0.045,0.023-0.074-0.033-0.103
			l0.008-0.019l0.148,0.067L20.948,23.13L20.948,23.13z"/>
		<path d="M21.329,23.68c-0.042-0.016-0.06-0.022-0.09,0.037l-0.047,0.09c-0.044,0.008-0.143-0.018-0.2-0.047
			c-0.163-0.085-0.169-0.25-0.104-0.375c0.074-0.141,0.224-0.21,0.365-0.136c0.059,0.03,0.091,0.092,0.107,0.1
			c0.018,0.009,0.031-0.003,0.047-0.017l0.018,0.009l-0.087,0.168l-0.017-0.008c0.01-0.075-0.001-0.188-0.076-0.226
			c-0.094-0.05-0.177,0.046-0.241,0.169c-0.027,0.05-0.115,0.23,0.008,0.295c0.057,0.03,0.079,0.014,0.095-0.017l0.039-0.076
			c0.024-0.045,0.003-0.057-0.04-0.084l0.009-0.018l0.223,0.117L21.329,23.68L21.329,23.68z"/>
		<path d="M21.716,24.161l-0.214-0.129l0.01-0.018C21.549,24.03,21.573,24.041,21.6,24l0.097-0.159l-0.152-0.092l-0.097,0.158
			c-0.025,0.042-0.004,0.06,0.026,0.083l-0.01,0.017l-0.212-0.129l0.011-0.017c0.036,0.015,0.058,0.025,0.083-0.017l0.204-0.334
			c0.027-0.045,0.001-0.063-0.023-0.082l0.01-0.017l0.211,0.128l-0.01,0.017c-0.029-0.014-0.059-0.03-0.086,0.016l-0.087,0.143
			l0.152,0.091l0.087-0.143c0.028-0.045,0-0.064-0.026-0.083l0.01-0.017L22,23.694l-0.011,0.018
			c-0.028-0.015-0.058-0.029-0.085,0.016l-0.204,0.334c-0.025,0.042-0.005,0.058,0.025,0.083L21.716,24.161L21.716,24.161z"/>
		<path d="M21.741,24.155c0.039,0.02,0.059,0.028,0.09-0.016l0.222-0.312c-0.002-0.069-0.01-0.078-0.018-0.084l0.012-0.016
			l0.126,0.09l0.008,0.429l0.001,0.001l0.141-0.2c0.028-0.04,0.037-0.066-0.009-0.104l0.012-0.017l0.128,0.092l-0.012,0.016
			c-0.047-0.024-0.062-0.012-0.084,0.02l-0.276,0.388l-0.017-0.011l-0.013-0.547l-0.001-0.001l-0.188,0.263
			c-0.034,0.047-0.03,0.069,0.011,0.106l-0.012,0.017l-0.136-0.097L21.741,24.155L21.741,24.155z"/>
		<path d="M22.502,24.052l0.327,0.271l-0.104,0.125l-0.014-0.012c0.06-0.1,0.033-0.148-0.043-0.211
			c-0.031-0.026-0.043-0.032-0.065-0.005l-0.119,0.145c0.053,0.045,0.096,0.054,0.168-0.018l0.015,0.012l-0.174,0.211l-0.015-0.012
			c0.058-0.084,0.044-0.126-0.012-0.172l-0.125,0.15c-0.022,0.028-0.018,0.044,0.019,0.074c0.055,0.046,0.126,0.078,0.24,0.013
			l0.016,0.013l-0.129,0.111l-0.331-0.273l0.013-0.016c0.035,0.023,0.054,0.036,0.086-0.003l0.249-0.302
			c0.034-0.041,0.011-0.062-0.013-0.085L22.502,24.052L22.502,24.052z"/>
		<path d="M23.025,24.729c0.03-0.051,0.062-0.147-0.001-0.207c-0.028-0.026-0.074-0.038-0.109,0
			c-0.031,0.031-0.033,0.054-0.011,0.121l0.037,0.117c0.009,0.028,0.017,0.1-0.044,0.163c-0.049,0.052-0.15,0.09-0.248-0.003
			c-0.051-0.048-0.056-0.091-0.072-0.107c-0.011-0.01-0.024-0.002-0.035,0.004l-0.016-0.014l0.138-0.144l0.016,0.015
			c-0.046,0.069-0.078,0.165-0.011,0.229c0.063,0.061,0.122,0.005,0.129-0.002c0.037-0.04,0.025-0.077,0.008-0.128l-0.018-0.053
			c-0.045-0.135,0.003-0.185,0.028-0.212c0.034-0.036,0.127-0.099,0.228-0.003c0.042,0.041,0.049,0.084,0.064,0.099
			c0.012,0.011,0.023,0.005,0.036-0.002l0.017,0.015l-0.122,0.127L23.025,24.729L23.025,24.729z"/>
		<path d="M23.319,25.044c0.033-0.048,0.073-0.143,0.015-0.207c-0.026-0.03-0.071-0.043-0.11-0.008
			c-0.032,0.03-0.036,0.052-0.02,0.121l0.029,0.119c0.006,0.028,0.009,0.101-0.056,0.16c-0.053,0.048-0.156,0.079-0.248-0.021
			c-0.047-0.051-0.048-0.094-0.063-0.111c-0.011-0.011-0.024-0.005-0.035,0.002l-0.015-0.016l0.147-0.134l0.015,0.016
			c-0.051,0.066-0.089,0.159-0.027,0.228c0.06,0.065,0.122,0.015,0.129,0.007c0.04-0.036,0.032-0.075,0.018-0.127l-0.014-0.054
			c-0.035-0.138,0.016-0.184,0.044-0.209c0.036-0.033,0.133-0.09,0.226,0.014c0.04,0.043,0.043,0.087,0.057,0.103
			c0.012,0.013,0.023,0.007,0.037,0l0.015,0.017l-0.13,0.118L23.319,25.044L23.319,25.044z"/>
		<path d="M15.395,16.376l-0.556,0.005c0-0.249,0.093-0.475,0.246-0.648c0.179-0.2,0.439-0.327,0.729-0.327L15.813,15.8
			l-0.374,0.044L15.395,16.376L15.395,16.376z"/>
		<path d="M16.251,16.376l0.539,0.005c0,0.281-0.119,0.535-0.31,0.713c-0.174,0.163-0.408,0.262-0.666,0.262v-0.501l0.375-0.06
			L16.251,16.376L16.251,16.376z"/>
	</g>
</g>
</svg>
